<svg width="26" height="20" viewBox="0 0 26 20" fill="none" xmlns="http://www.w3.org/2000/svg">
<path d="M14.7498 11.75C13.7776 11.75 12.9512 11.4097 12.2707 10.7291C11.5901 10.0486 11.2498 9.22218 11.2498 8.24996C11.2498 7.27774 11.5901 6.45135 12.2707 5.77079C12.9512 5.09024 13.7776 4.74996 14.7498 4.74996C15.7221 4.74996 16.5484 5.09024 17.229 5.77079C17.9096 6.45135 18.2498 7.27774 18.2498 8.24996C18.2498 9.22218 17.9096 10.0486 17.229 10.7291C16.5484 11.4097 15.7221 11.75 14.7498 11.75ZM5.4165 15.8333C4.93039 15.8333 4.5172 15.6632 4.17692 15.3229C3.83664 14.9826 3.6665 14.5694 3.6665 14.0833V2.41663C3.6665 1.93051 3.83664 1.51732 4.17692 1.17704C4.5172 0.836765 4.93039 0.666626 5.4165 0.666626H24.0832C24.5693 0.666626 24.9825 0.836765 25.3228 1.17704C25.663 1.51732 25.8332 1.93051 25.8332 2.41663V14.0833C25.8332 14.5694 25.663 14.9826 25.3228 15.3229C24.9825 15.6632 24.5693 15.8333 24.0832 15.8333H5.4165ZM8.33317 14.0833H21.1665C21.1665 13.2666 21.4485 12.5763 22.0123 12.0125C22.5762 11.4486 23.2665 11.1666 24.0832 11.1666V5.33329C23.2665 5.33329 22.5762 5.05135 22.0123 4.48746C21.4485 3.92357 21.1665 3.23329 21.1665 2.41663H8.33317C8.33317 3.23329 8.05123 3.92357 7.48734 4.48746C6.92345 5.05135 6.23317 5.33329 5.4165 5.33329V11.1666C6.23317 11.1666 6.92345 11.4486 7.48734 12.0125C8.05123 12.5763 8.33317 13.2666 8.33317 14.0833ZM22.3332 19.3333H1.9165C1.43039 19.3333 1.0172 19.1632 0.676921 18.8229C0.336643 18.4826 0.166504 18.0694 0.166504 17.5833V4.16663H1.9165V17.5833H22.3332V19.3333ZM5.4165 14.0833V2.41663V14.0833Z" fill="black"/>
</svg>
