<svg width="20" height="20" viewBox="0 0 20 20" fill="none" xmlns="http://www.w3.org/2000/svg">
<path d="M10 2C8.94943 2 7.90914 2.20693 6.93853 2.60896C5.96793 3.011 5.08601 3.60028 4.34315 4.34315C3.60028 5.08601 3.011 5.96793 2.60896 6.93853C2.20693 7.90914 2 8.94943 2 10C2 11.0506 2.20693 12.0909 2.60896 13.0615C3.011 14.0321 3.60028 14.914 4.34315 15.6569C5.08602 16.3997 5.96793 16.989 6.93853 17.391C7.90914 17.7931 8.94943 18 10 18L10 10L10 2Z" fill="#D9D9D9"/>
<circle cx="10" cy="10" r="9.5" transform="rotate(-90 10 10)" stroke="#D9D9D9"/>
</svg>
