<svg width="32" height="26" viewBox="0 0 32 26" fill="none" xmlns="http://www.w3.org/2000/svg">
<path d="M26.828 21.5721C26.828 21.9501 26.573 22.2221 26.206 22.2221C25.828 22.2221 25.584 21.9331 25.584 21.5721C25.584 21.2111 25.828 20.9221 26.206 20.9221C26.573 20.9221 26.828 21.2111 26.828 21.5721ZM9.56102 20.9221C9.16602 20.9221 8.93902 21.2111 8.93902 21.5721C8.93902 21.9331 9.16702 22.2221 9.56102 22.2221C9.92202 22.2221 10.166 21.9501 10.166 21.5721C10.16 21.2111 9.92202 20.9221 9.56102 20.9221ZM16.089 20.9061C15.789 20.9061 15.605 21.1001 15.561 21.3891H16.622C16.572 21.0721 16.378 20.9061 16.089 20.9061ZM22.078 20.9221C21.7 20.9221 21.473 21.2111 21.473 21.5721C21.473 21.9331 21.701 22.2221 22.078 22.2221C22.456 22.2221 22.7 21.9501 22.7 21.5721C22.7 21.2111 22.455 20.9221 22.078 20.9221ZM27.961 22.3721C27.961 22.3891 27.978 22.4001 27.978 22.4331C27.978 22.4501 27.961 22.4611 27.961 22.4941C27.944 22.5111 27.944 22.5221 27.933 22.5381C27.916 22.5551 27.905 22.5661 27.872 22.5661C27.855 22.5831 27.844 22.5831 27.811 22.5831C27.794 22.5831 27.783 22.5831 27.75 22.5661C27.733 22.5661 27.722 22.5491 27.706 22.5381C27.689 22.5211 27.678 22.5101 27.678 22.4941C27.661 22.4661 27.661 22.4501 27.661 22.4331C27.661 22.4051 27.661 22.3891 27.678 22.3721C27.678 22.3441 27.695 22.3281 27.706 22.3111C27.723 22.2941 27.734 22.2941 27.75 22.2831C27.778 22.2661 27.794 22.2661 27.811 22.2661C27.839 22.2661 27.855 22.2661 27.872 22.2831C27.9 22.2991 27.916 22.2991 27.933 22.3111C27.95 22.3231 27.944 22.3441 27.961 22.3721ZM27.839 22.4501C27.867 22.4501 27.867 22.4331 27.883 22.4331C27.9 22.4161 27.9 22.4051 27.9 22.3891C27.9 22.3731 27.9 22.3611 27.883 22.3451C27.867 22.3451 27.855 22.3281 27.822 22.3281H27.733V22.5221H27.777V22.4441H27.794L27.855 22.5221H27.899L27.839 22.4501ZM32 3.27808V22.8341C31.9998 23.5413 31.7187 24.2195 31.2186 24.7196C30.7185 25.2197 30.0403 25.5008 29.333 25.5011H2.66602C1.95877 25.5008 1.28056 25.2197 0.780462 24.7196C0.28036 24.2195 -0.000711526 23.5413 -0.000976562 22.8341V3.27808C-0.000711526 2.57083 0.28036 1.89262 0.780462 1.39252C1.28056 0.892421 1.95877 0.611349 2.66602 0.611084H29.333C30.0403 0.611349 30.7185 0.892421 31.2186 1.39252C31.7187 1.89262 31.9998 2.57083 32 3.27808ZM3.55602 11.0331C3.55602 15.2831 7.00602 18.7271 11.25 18.7271C12.7615 18.7228 14.2387 18.2768 15.5 17.4441C11.45 14.1501 11.478 7.93308 15.5 4.63808C14.2399 3.80272 12.7619 3.35653 11.25 3.35508C7.00602 3.35008 3.55602 6.79908 3.55602 11.0331ZM16 17.0781C19.917 14.0221 19.9 8.06708 16 4.99508C12.1 8.06708 12.083 14.0281 16 17.0781ZM8.09402 21.3171C8.09402 20.8341 7.77702 20.5171 7.27702 20.5001C7.02102 20.5001 6.74902 20.5781 6.56602 20.8611C6.43302 20.6331 6.20502 20.5001 5.88802 20.5001C5.77283 20.4983 5.65896 20.5247 5.5563 20.577C5.45365 20.6293 5.36533 20.7059 5.29902 20.8001V20.5561H4.84402V22.5951H5.29902C5.29902 21.5451 5.16002 20.9171 5.79902 20.9171C6.36602 20.9171 6.25502 21.4841 6.25502 22.5951H6.69402C6.69402 21.5781 6.55502 20.9171 7.19402 20.9171C7.76102 20.9171 7.64902 21.4731 7.64902 22.5951H8.10502V21.3171H8.09402ZM10.589 20.5561H10.15V20.8001C10.0723 20.7031 9.97315 20.6256 9.86035 20.5735C9.74755 20.5215 9.6242 20.4963 9.50002 20.5001C8.92802 20.5001 8.48902 20.9561 8.48902 21.5721C8.48902 22.1941 8.92802 22.6441 9.50002 22.6441C9.78902 22.6441 10 22.5381 10.15 22.3441V22.6001H10.589V20.5561ZM12.839 21.9781C12.839 21.1451 11.567 21.5221 11.567 21.1331C11.567 20.8161 12.228 20.8671 12.595 21.0721L12.778 20.7111C12.256 20.3721 11.1 20.3781 11.1 21.1671C11.1 21.9611 12.372 21.6281 12.372 22.0001C12.372 22.3501 11.622 22.3221 11.222 22.0441L11.028 22.3941C11.65 22.8161 12.839 22.7271 12.839 21.9771V21.9781ZM14.806 22.4941L14.684 22.1161C14.473 22.2321 14.006 22.3601 14.006 21.8881V20.9661H14.734V20.5551H14.006V19.9331H13.55V20.5551H13.128V20.9611H13.55V21.8891C13.55 22.8671 14.511 22.6891 14.806 22.4941ZM15.544 21.7501H17.072C17.072 20.8501 16.661 20.4941 16.105 20.4941C15.516 20.4941 15.094 20.9331 15.094 21.5661C15.094 22.7051 16.35 22.8941 16.972 22.3551L16.761 22.0221C16.328 22.3781 15.672 22.3441 15.544 21.7501ZM18.828 20.5561C18.573 20.4451 18.184 20.4561 17.984 20.8001V20.5561H17.528V22.5951H17.984V21.4451C17.984 20.8001 18.512 20.8841 18.695 20.9781L18.828 20.5561ZM19.417 21.5721C19.417 20.9381 20.062 20.7331 20.567 21.1051L20.778 20.7441C20.133 20.2391 18.961 20.5161 18.961 21.5771C18.961 22.6771 20.205 22.8991 20.778 22.4101L20.567 22.0491C20.056 22.4101 19.417 22.1941 19.417 21.5711V21.5721ZM23.122 20.5561H22.666V20.8001C22.205 20.1891 21.005 20.5341 21.005 21.5721C21.005 22.6391 22.249 22.9441 22.666 22.3441V22.6001H23.122V20.5561ZM24.994 20.5561C24.861 20.4891 24.383 20.3951 24.15 20.8001V20.5561H23.711V22.5951H24.15V21.4451C24.15 20.8341 24.65 20.8731 24.861 20.9781L24.994 20.5561ZM27.233 19.7281H26.794V20.8001C26.338 20.1951 25.133 20.5171 25.133 21.5721C25.133 22.6501 26.383 22.9381 26.794 22.3441V22.6001H27.233V19.7281ZM27.656 15.5561V15.8121H27.7V15.5561H27.805V15.5121H27.549V15.5561H27.656ZM28.022 22.4331C28.022 22.4051 28.022 22.3721 28.006 22.3441C27.989 22.3271 27.978 22.3001 27.962 22.2831C27.946 22.2661 27.918 22.2551 27.901 22.2391C27.873 22.2391 27.84 22.2221 27.812 22.2221C27.795 22.2221 27.768 22.2391 27.734 22.2391C27.7121 22.2514 27.6916 22.2662 27.673 22.2831C27.645 22.2991 27.629 22.3271 27.629 22.3441C27.612 22.3721 27.612 22.4051 27.612 22.4331C27.612 22.4501 27.612 22.4771 27.629 22.5111C27.629 22.5281 27.646 22.5551 27.673 22.5721C27.6899 22.591 27.7107 22.606 27.734 22.6161C27.762 22.6321 27.795 22.6321 27.812 22.6321C27.84 22.6321 27.873 22.6321 27.901 22.6161C27.918 22.5991 27.945 22.5881 27.962 22.5721C27.979 22.5561 27.99 22.5281 28.006 22.5111C28.022 22.4781 28.022 22.4501 28.022 22.4331ZM28.2 15.5061H28.122L28.033 15.7001L27.944 15.5061H27.866V15.8061H27.91V15.5781L27.999 15.7721H28.06L28.138 15.5781V15.8061H28.199L28.2 15.5061ZM28.444 11.0331C28.444 6.79908 24.994 3.35008 20.75 3.35008C19.2385 3.35387 17.7611 3.79986 16.5 4.63308C20.506 7.92808 20.567 14.1611 16.5 17.4391C17.7608 18.273 19.2384 18.7191 20.75 18.7221C24.994 18.7281 28.444 15.2831 28.444 11.0331Z" fill="black"/>
</svg>
