<svg width="81" height="83" viewBox="0 0 81 83" fill="none" xmlns="http://www.w3.org/2000/svg">
<path d="M32.3284 0.385681C29.9435 0.671371 28.7367 1.0142 25.7197 2.24266C20.8351 4.27105 19.6857 4.92814 16.8986 7.27078C13.5081 10.1277 8.70967 14.6416 7.18681 16.4414C4.39969 19.6697 2.2447 25.3263 0.578176 33.6684C0.118445 36.0397 -0.0252206 37.6681 0.00351256 41.4106C0.0322458 46.0959 0.0609789 46.2673 1.32524 51.2383C3.59516 60.0375 4.39969 61.7517 8.8246 67.5226C12.0427 71.6937 15.5482 75.1219 18.6226 77.1217C21.5247 79.0073 27.4724 81.9499 28.3632 81.9499C28.7367 81.9499 29.5987 82.1784 30.2596 82.4356C32.1272 83.2069 44.6262 83.1784 47.7293 82.407C52.4703 81.2357 55.8034 80.0072 61.6649 77.236C64.998 75.6647 65.7738 75.1791 68.0437 73.065C69.4804 71.7508 71.8652 69.551 73.3594 68.2083C76.0028 65.7799 76.089 65.6656 78.1578 61.4946C80.0255 57.752 80.3128 56.9521 80.5426 54.9523C81.0311 50.4955 81.146 45.0674 80.8012 42.5534C80.6001 41.2106 80.3415 39.1822 80.1691 38.0966C79.8818 36.0397 76.1465 24.6407 74.7385 21.4981C73.3594 18.4984 70.8308 15.013 67.038 10.9562C63.3602 7.01366 61.3489 5.49951 57.1538 3.47112C55.2574 2.55692 49.597 0.899918 46.6662 0.385681C43.7354 -0.128563 36.5809 -0.128563 32.3284 0.385681ZM38.0463 1.87126L38.8795 2.67119L38.6784 1.87126C38.3623 0.671371 39.1669 0.871353 40.5748 2.38551C41.9827 3.87109 42.4137 3.87109 41.2931 2.38551C40.6897 1.61414 40.6322 1.38559 40.977 1.38559C41.2069 1.38559 41.839 1.95697 42.3562 2.69976C43.2757 4.01393 43.8791 3.95679 42.9884 2.64262C42.7298 2.24266 42.5861 1.81413 42.701 1.72842C42.9022 1.52843 43.7642 2.44264 44.2814 3.35684C44.425 3.61397 44.5974 3.72824 44.7124 3.61397C44.8273 3.52826 44.6836 3.09972 44.3963 2.69976C44.1377 2.27122 44.0228 1.8427 44.109 1.72842C44.3388 1.52843 45.4307 2.64262 45.9766 3.5854C46.1203 3.87109 46.3501 4.01393 46.4363 3.89966C46.5513 3.78538 46.4363 3.41399 46.1777 3.04259C45.6605 2.32836 45.6031 1.95697 45.9766 1.95697C46.1203 1.95697 46.6087 2.52835 47.0685 3.24257C48.0741 4.81386 48.5339 4.92814 47.7293 3.41399C47.0685 2.09982 47.442 1.52843 48.1891 2.72833C48.4764 3.15686 48.8787 3.84251 49.0798 4.18534C49.6832 5.15668 49.8843 4.75672 49.3384 3.69967C48.7925 2.69976 48.7925 2.52835 49.166 2.52835C49.3384 2.52835 49.7407 3.09972 50.0855 3.81395C50.4303 4.52817 50.8325 5.09955 50.9475 5.09955C51.2635 5.09955 51.2348 5.04241 50.7176 3.98536C49.7119 2.01411 51.1199 2.55692 52.5565 4.69958C53.4472 6.07089 53.8495 5.92805 53.045 4.52817C52.5565 3.6711 52.5278 3.38541 52.93 3.38541C53.0737 3.38541 53.5622 4.1282 53.9644 5.01384C54.3954 5.92805 54.769 6.49943 54.8264 6.32801C54.9126 6.12803 54.8264 5.72807 54.654 5.4138C54.2805 4.72815 54.2518 4.52817 54.5966 4.52817C54.7402 4.52817 54.9414 4.89957 55.0563 5.38524C55.1712 5.84234 55.3724 6.2423 55.5448 6.2423C55.7172 6.2423 55.7746 5.95662 55.6597 5.52808C55.3436 4.32819 55.9758 4.72815 56.5217 6.09946C56.7803 6.81368 57.1251 7.38506 57.2688 7.38506C57.4124 7.38506 57.3837 7.12794 57.2113 6.84225C56.809 6.07089 56.8378 5.29953 57.2688 5.44238C57.4699 5.52808 57.8722 6.27087 58.1595 7.12794L58.648 8.67066L58.533 7.4422C58.4468 6.55656 58.5043 6.2423 58.8204 6.2423C59.0215 6.2423 59.3376 6.78511 59.5387 7.4422C60.0846 9.47059 60.3719 9.98483 60.3145 8.75637C60.2857 8.18499 60.3432 7.58504 60.4869 7.47076C60.8029 7.12794 61.5213 8.24213 61.5213 9.0992C61.5213 9.49916 61.7224 10.0991 61.9523 10.4134C62.3258 10.899 62.3545 10.8705 62.1821 9.87055C61.9523 8.41354 62.5557 8.47068 63.1878 9.95626C63.4751 10.6133 63.8774 11.099 64.136 11.099C64.6532 11.099 64.9693 11.6704 64.9693 12.556C64.9693 12.8417 65.1129 13.0988 65.2566 13.0988C65.429 13.0988 65.5439 12.8131 65.5439 12.4418L65.5727 11.8132L66.1186 12.4989C66.4346 12.8703 66.6933 13.5845 66.6933 14.1273C66.6933 14.6701 66.8369 15.0987 67.0093 15.0987C67.1817 15.0987 67.2392 14.8701 67.1242 14.5559C67.038 14.2416 67.0668 13.9559 67.1817 13.8702C67.5265 13.6702 69.8826 17.2413 69.9976 18.1555C70.055 18.5841 70.1125 19.1554 70.1412 19.384C70.17 19.6126 70.2849 19.4983 70.3998 19.1269C70.601 18.4127 70.601 18.4412 71.2331 19.4983C71.5779 20.0697 71.8652 21.041 71.8652 21.6124C71.8652 22.3266 71.9514 22.5551 72.1238 22.2695C72.4974 21.6981 72.9571 22.1266 73.187 23.2694C73.3019 23.8407 73.5317 24.355 73.7616 24.4407C74.2213 24.6121 74.7385 26.0406 74.7385 27.1262C74.7385 27.7261 74.8535 27.8975 75.1408 27.7833C75.7442 27.5547 76.0603 29.4403 75.6867 31.1544C75.5431 31.8972 75.5143 32.44 75.658 32.3543C75.7729 32.2686 75.8879 32.0115 75.8879 31.7829C75.8879 31.5258 76.0603 31.3829 76.2614 31.4686C76.6637 31.6115 76.6062 33.7256 76.1465 34.5541C75.9741 34.9255 75.9741 35.0969 76.1752 35.0969C76.3189 35.0969 76.4625 34.954 76.4625 34.7541C76.4625 34.5255 76.5487 34.4969 76.7499 34.6969C77.1234 35.0683 77.1809 36.1539 76.8935 37.2396C76.6637 38.0109 76.6924 38.0681 77.1234 37.6967C77.5257 37.3824 77.6406 37.3824 77.7843 37.7824C77.8705 38.0395 77.8992 38.7537 77.8417 39.3822C77.7843 40.1822 77.8417 40.4964 78.0716 40.4107C78.5601 40.2393 78.8474 42.0106 78.4739 42.9248C78.1003 43.9247 78.1003 43.9533 78.5888 43.7818C78.8474 43.6961 79.0198 43.9533 79.1635 44.5818C79.3359 45.3817 79.2497 45.6388 78.6175 46.1531C77.7555 46.9244 77.6981 47.2101 78.4739 46.953C79.106 46.753 79.2209 47.1244 78.7612 47.9815C78.5888 48.2957 78.5601 48.6957 78.675 48.8957C79.0198 49.4385 78.9623 50.0384 78.5026 50.5812C78.1578 51.0383 78.1578 51.0955 78.5601 51.0955C79.2497 51.0955 79.1635 51.7811 78.3302 52.7525C77.4682 53.781 77.4395 53.9524 78.1865 53.7524C78.9911 53.5524 78.9049 53.781 77.7268 55.0951C77.1521 55.7236 76.8073 56.2379 76.951 56.2379C77.1234 56.2379 77.4682 55.9808 77.7555 55.6665C78.0429 55.3522 78.3877 55.0951 78.5313 55.0951C79.0773 55.0951 78.675 55.7808 77.4682 56.8664C75.9453 58.2663 75.7442 58.9234 77.1809 57.8377C77.8992 57.2664 78.1865 57.1807 78.1865 57.4949C78.1865 57.7235 77.3533 58.5805 76.3189 59.3805C75.2845 60.209 74.5087 60.9517 74.5949 61.0375C74.6811 61.1232 75.1408 60.8946 75.6293 60.5518C77.6693 59.0376 76.6062 61.1232 74.5087 62.6945C73.8765 63.2087 73.4168 63.6944 73.503 63.7801C73.5892 63.8658 73.8478 63.8086 74.0777 63.6087C74.2788 63.4372 74.5661 63.3801 74.6811 63.523C74.9684 63.8086 72.4112 65.9513 71.7216 65.9799C71.2331 66.037 71.2331 66.037 71.8078 66.1513C72.1526 66.2084 72.4399 66.3798 72.4399 66.4655C72.4399 66.7798 69.739 68.4654 68.9057 68.6654C68.5034 68.7796 68.015 69.0367 67.8426 69.2653C67.5552 69.5796 67.6702 69.5796 68.446 69.3796C68.9632 69.2367 69.4516 69.1796 69.5378 69.2367C69.7677 69.4939 69.193 69.8938 67.4116 70.808C66.3197 71.3508 65.9462 71.6651 66.3484 71.6651C67.5552 71.6651 66.9806 72.2079 65.2566 72.6936C63.3889 73.2078 62.4695 73.8935 64.0498 73.5792C66.0611 73.1792 64.2222 74.4934 62.1534 74.9505C61.55 75.0648 61.119 75.379 60.9466 75.8076C60.7455 76.3504 60.4007 76.4932 58.964 76.6646C57.2975 76.8646 56.493 77.3789 57.8434 77.3789C58.4468 77.3789 58.4468 77.3789 57.9009 77.8074C57.5848 78.0645 56.6941 78.2074 55.7172 78.2359C54.338 78.2359 54.1081 78.3216 54.2518 78.693C54.3954 79.0644 54.1656 79.1216 52.7289 79.093C50.5739 79.0359 50.3153 79.0644 51.0337 79.3787C51.5509 79.5787 51.5509 79.6358 50.7463 79.9501C49.8556 80.2929 46.8099 80.2358 45.9479 79.8358C45.6318 79.693 45.4307 79.7215 45.4307 79.9215C45.4307 80.0929 45.6318 80.2358 45.8617 80.2358C46.4363 80.2358 46.4076 80.6929 45.833 80.9214C45.0572 81.2071 43.8216 81.1214 42.7585 80.6643C41.4655 80.1215 41.3793 80.1215 41.5804 80.6357C41.839 81.3214 39.9426 81.5214 38.8221 80.95C38.3336 80.6929 37.8164 80.5786 37.7302 80.6929C37.6153 80.8071 37.6727 80.9214 37.8164 81.0071C38.506 81.2642 38.937 81.6356 38.7359 81.8356C38.3911 82.1784 35.8051 81.4071 33.5064 80.2929C33.3627 80.2072 33.5064 80.4643 33.8799 80.8643C34.2247 81.2357 34.5121 81.6356 34.5121 81.7213C34.5121 81.9785 31.2365 80.6643 30.0872 79.9786C28.8804 79.2358 28.5356 79.2073 29.1964 79.9501C30.3458 81.2357 28.0758 80.35 26.438 78.893C25.7485 78.2931 25.2887 78.036 25.4037 78.2931C25.7485 79.2073 24.8577 78.5216 24.3693 77.5217C23.7659 76.2361 23.1912 76.179 23.4498 77.436L23.6509 78.3216L22.7315 77.7503C22.243 77.436 21.5534 76.8075 21.2373 76.3504C20.7776 75.6647 20.7201 75.6362 20.8638 76.1504C21.2086 77.4074 19.9443 76.6932 19.1973 75.2362C18.9674 74.7505 18.6226 74.0649 18.479 73.6649C18.1916 72.9793 18.1629 73.0078 18.1629 74.0077C18.1342 74.6077 18.0192 75.0934 17.8756 75.0934C17.7319 75.0934 16.9561 74.4648 16.1516 73.722C14.8298 72.4936 14.6862 72.2365 14.6862 71.1223C14.6862 70.3224 14.5712 69.9795 14.3701 70.1224C14.1977 70.2366 14.1115 70.6652 14.2264 71.1508C14.4276 72.2079 14.1977 72.1222 12.9047 70.6652C11.9565 69.6081 11.8703 69.351 11.9565 68.2368C12.1002 66.9798 12.0715 66.9512 11.7554 67.8654C11.3819 68.9796 11.2382 69.0082 10.3762 68.094C9.80153 67.494 9.74406 67.2369 9.91646 65.9513C10.1463 64.3229 9.71533 64.18 9.2556 65.7513L8.997 66.6655L8.53727 65.5799C8.27867 64.98 8.10627 64.2657 8.19247 64.0086C8.566 62.5802 8.62347 61.9517 8.3936 61.9517C8.24994 61.9517 8.04881 62.2659 7.96261 62.6659C7.70401 63.6372 7.33048 63.5515 6.75581 62.4659C6.46848 61.8945 6.35355 61.2374 6.46848 60.5804C6.61215 59.5804 6.61215 59.5804 6.15242 60.2375L5.69268 60.8946L5.14675 59.8376C4.83069 59.209 4.68702 58.5234 4.77322 58.152C4.88815 57.8092 5.03182 57.2949 5.08929 57.0092C5.17549 56.7521 5.11802 56.5236 4.94562 56.5236C4.80196 56.5236 4.62956 56.7521 4.54336 57.0092C4.45716 57.3806 4.31349 57.2378 3.96869 56.4664C3.42276 55.2665 3.33656 54.0666 3.76756 53.8095C3.93996 53.7238 4.05489 53.4096 4.05489 53.1524C4.05489 52.8096 3.96869 52.781 3.71009 53.0382C3.13543 53.6095 2.9343 53.4381 2.61823 52.2097C2.35963 51.324 2.38837 50.8098 2.64697 50.1813C2.81937 49.7242 2.90556 49.2956 2.81937 49.1814C2.70443 49.0957 2.56077 49.2385 2.44583 49.4956C2.12977 50.3241 1.75624 49.9813 1.75624 48.8385C1.75624 48.21 1.61257 46.7244 1.44017 45.5245C1.15284 43.3247 1.15284 43.2962 1.92864 42.4962C2.6757 41.7249 2.73317 40.8678 1.9861 41.6106C1.35397 42.2391 1.18157 41.9534 1.18157 40.3536C1.18157 38.9251 1.26777 38.668 2.12977 37.8681C3.04923 37.011 3.04923 37.011 2.30217 37.1824C1.8999 37.2967 1.49764 37.2967 1.41144 37.211C1.06664 36.8682 1.8137 34.6112 2.47457 34.0398C3.33656 33.2685 3.39403 32.9828 2.61823 33.2399C2.12977 33.4113 2.04357 33.2971 2.04357 32.4114C2.04357 31.6972 2.30217 31.1258 2.9343 30.383C3.73883 29.4974 3.76756 29.3831 3.25036 29.3831C2.4171 29.3831 2.7619 28.3832 3.82503 27.5833L4.65829 26.9833L4.02616 26.4977C3.39403 26.0406 3.39403 25.9834 3.85376 25.2692C4.14109 24.8692 4.62956 24.4693 5.00309 24.4121C5.34789 24.3264 5.89382 24.2121 6.20988 24.155C6.52595 24.0693 6.29608 24.0122 5.72142 23.9836C5.11802 23.9836 4.62956 23.8693 4.62956 23.755C4.62956 23.4122 5.86508 22.2409 6.26735 22.2409C6.46848 22.2409 6.64088 22.098 6.64088 21.9266C6.64088 21.7552 6.38228 21.6981 6.06622 21.8124C4.74449 22.2409 6.15242 20.2696 7.56034 19.784C8.50854 19.4411 8.50854 19.4411 7.73274 19.4126C6.69835 19.384 6.72708 19.0697 7.81894 17.8127C8.566 16.9842 8.9108 16.8128 9.83026 16.8128C10.4337 16.8128 10.9509 16.67 10.9509 16.5271C10.9509 16.3557 10.5486 16.2414 10.0601 16.2414H9.19813L9.97393 15.2129C10.4337 14.6416 11.0945 14.1273 11.583 14.0416C12.3875 13.8988 12.7036 13.3845 12.0427 13.3845C11.5255 13.356 13.192 11.9561 13.7092 11.9561C13.9391 11.9561 14.1115 11.7561 14.054 11.4704C13.9391 10.7848 15.7206 9.67057 16.9274 9.67057C17.8756 9.67057 17.9043 9.64201 17.4158 9.27061C16.8986 8.89922 16.9274 8.87064 17.7894 8.41354C18.2778 8.15642 18.9962 7.95644 19.3984 7.95644C19.9156 7.95644 20.088 7.84216 19.9731 7.55647C19.6857 6.81368 20.8925 6.44228 22.4729 6.78511C24.3405 7.18508 24.4842 7.18508 23.4785 6.67084C23.0475 6.44228 22.4729 6.2423 22.243 6.2423C21.5534 6.2423 22.2717 5.55665 23.5935 4.9567C24.5129 4.55674 24.9439 4.4996 25.8921 4.75672C26.984 5.01384 27.5299 4.78529 26.6104 4.41389C26.3806 4.32819 26.1794 4.15678 26.1794 3.98536C26.1794 3.52826 27.3575 3.41399 28.5068 3.81395C29.2252 4.07107 29.6274 4.09964 29.6274 3.92822C29.6274 3.75681 29.3688 3.55683 29.0528 3.47112C28.708 3.38541 28.5068 3.15686 28.5643 2.98545C28.708 2.52835 30.0872 2.44264 31.1216 2.78547C32.0985 3.1283 32.5869 2.95688 31.9261 2.49978C31.5526 2.27122 31.5526 2.21409 31.9261 1.95697C32.6444 1.49987 33.8225 1.64271 34.3684 2.24266C34.6557 2.55692 35.0293 2.81403 35.1729 2.81403C35.3453 2.81403 35.2304 2.55692 34.9431 2.24266C34.4546 1.72842 34.4546 1.67128 34.9143 1.49987C35.2879 1.35703 35.8338 1.72842 36.8682 2.69976C38.1899 3.98536 38.2761 4.01393 37.8451 3.18543C37.5865 2.69976 37.2705 2.18552 37.0981 2.09982C36.782 1.89983 36.6958 1.0999 37.0119 1.0999C37.1268 1.0999 37.5865 1.44273 38.0463 1.87126ZM69.1068 14.1559C69.5091 14.7273 69.7677 15.2986 69.6815 15.4415C69.4804 15.7558 69.5378 15.8129 68.5896 14.2987C67.6702 12.8417 68.1012 12.6989 69.1068 14.1559ZM71.1469 16.6128C71.8652 17.8413 72.0664 18.8126 71.6354 18.8126C71.3193 18.8126 69.8539 15.7558 70.055 15.5558C70.3424 15.2986 70.3711 15.2986 71.1469 16.6128ZM73.4168 20.2982C74.2788 21.7838 74.8247 23.1837 74.4799 22.9551C74.3075 22.8694 73.9915 22.4123 73.7616 21.9266C73.5317 21.4695 73.072 20.641 72.7272 20.0982C72.3824 19.5554 72.2388 19.0983 72.4112 19.0983C72.5548 19.0983 73.0145 19.6411 73.4168 20.2982ZM77.8705 31.84C78.244 32.84 78.1291 33.4399 77.6406 32.9257C77.2671 32.5543 76.951 30.8116 77.2383 30.8116C77.382 30.8116 77.6693 31.2687 77.8705 31.84ZM79.0485 35.8968C79.1922 36.4682 79.3359 37.1539 79.3359 37.3824C79.3071 38.0109 78.5888 36.5253 78.3877 35.4397C78.1291 34.1827 78.6463 34.5255 79.0485 35.8968ZM0.52071 39.4394C0.43451 39.6679 0.348311 39.5822 0.348311 39.268C0.319578 38.9537 0.405777 38.7823 0.491977 38.8966C0.578176 38.9823 0.60691 39.2394 0.52071 39.4394ZM80.5426 46.0674C80.2553 46.6387 79.8818 45.296 80.0829 44.4389L80.3128 43.5247L80.4852 44.6675C80.5714 45.296 80.6001 45.9245 80.5426 46.0674ZM80.399 50.7241C80.3128 51.0098 80.2553 50.8384 80.2553 50.3813C80.2553 49.8956 80.3128 49.6956 80.399 49.867C80.4564 50.067 80.4564 50.467 80.399 50.7241ZM79.9105 55.7808C79.9105 56.1522 78.9911 57.9806 78.8474 57.8663C78.6463 57.6663 79.3933 55.6665 79.6806 55.6665C79.7956 55.6665 79.9105 55.7236 79.9105 55.7808ZM75.3132 65.6942C75.1121 66.0084 74.9109 66.2084 74.8247 66.1227C74.7385 66.037 74.8247 65.7799 75.0259 65.5228C75.5431 64.9228 75.6867 64.98 75.3132 65.6942ZM60.6593 77.0932C60.6593 77.236 60.3432 77.3789 59.9409 77.3789C59.5387 77.3789 59.2226 77.236 59.2226 77.0932C59.2226 76.9218 59.5387 76.8075 59.9409 76.8075C60.3432 76.8075 60.6593 76.9218 60.6593 77.0932ZM49.6832 81.0357C50.0855 81.3214 48.2753 81.9499 47.1259 81.9499C46.2352 81.9499 46.7237 81.4928 48.0167 81.15C49.3097 80.7786 49.2522 80.7786 49.6832 81.0357ZM32.156 81.807C32.7306 81.9213 33.0179 82.1213 32.8743 82.2642C32.5869 82.5498 30.6044 82.0642 30.317 81.6356C30.2021 81.4357 30.317 81.3785 30.6618 81.4642C30.9779 81.5499 31.6388 81.7213 32.156 81.807ZM44.1377 82.2356C44.0515 82.3784 43.5056 82.5213 42.9596 82.5213C42.3562 82.5213 42.0114 82.407 42.1264 82.2356C42.2126 82.0642 42.7585 81.9499 43.3044 81.9499C43.9078 81.9499 44.2526 82.0642 44.1377 82.2356Z" fill="#CBCBCB"/>
<path d="M38.6783 7.07073C31.8685 8.41348 30.7767 8.69917 28.047 9.95619C24.0244 11.7846 23.1337 12.156 22.3004 12.356C21.2085 12.6131 17.7031 15.27 15.4332 17.5555C13.8528 19.0982 12.215 21.3266 9.54286 25.4977C7.7614 28.326 5.77881 34.5826 5.77881 37.5252C5.77881 39.6964 6.41094 44.8103 6.66954 44.6388C6.8132 44.5531 6.84194 44.096 6.78447 43.5818C6.69827 43.0675 6.5546 41.182 6.46841 39.3822C6.29601 36.5253 6.35347 35.811 6.8994 33.8112C7.99126 29.9544 8.53719 28.6403 10.4911 25.2691C13.1058 20.7838 14.6861 18.8697 18.1341 15.9271C20.8637 13.6416 21.3809 13.3273 24.5703 12.0989C26.4954 11.3561 28.4493 10.5276 28.909 10.2705C30.2882 9.47052 31.5237 9.12769 36.0923 8.21349C41.0057 7.21358 43.1032 7.21358 47.2121 8.24206C50.0854 8.95628 52.499 10.3276 54.6252 12.4988C55.516 13.3845 57.3262 15.07 58.6479 16.2414C61.8085 19.0697 64.1072 21.7837 67.1529 26.2976C70.3136 31.04 71.3192 33.0399 72.4111 36.9538C73.1294 39.4964 73.3305 40.8677 73.4742 44.096C73.6753 48.7813 73.388 50.324 71.5778 54.6665C70.5434 57.1806 70.0837 57.8662 67.9 60.266C66.5208 61.7802 64.6531 63.8657 63.7624 64.8942C60.9465 68.0653 57.5848 69.8937 48.3039 73.3506C44.1089 74.8933 39.4254 75.9504 36.6383 75.9504C32.9891 75.9504 27.1563 74.2934 24.7427 72.5792C21.4671 70.2366 16.7262 65.1513 13.3931 60.4089C11.8415 58.2091 11.2956 58.0662 12.646 60.2375C14.5712 63.3229 19.7431 69.4366 22.3004 71.6079C25.576 74.4076 31.6674 76.5217 36.4659 76.5217C38.7932 76.5217 42.9883 75.8361 45.1433 75.0933C49.5682 73.6077 54.2517 71.7222 57.4124 70.208C60.4293 68.7796 61.2339 68.2367 63.0153 66.4655C66.492 63.0086 70.0837 58.9519 70.6871 57.7805C73.8765 51.5811 74.5661 48.1814 73.9052 41.8105C73.5604 38.4965 72.2387 33.7827 70.917 31.1543C68.762 26.869 63.3601 19.7553 59.7972 16.4985C58.3318 15.1843 56.1481 13.0988 54.9126 11.8703C53.677 10.6704 52.5277 9.6705 52.384 9.6705C52.2116 9.6705 51.6082 9.35625 51.0336 8.98485C49.051 7.64211 41.6378 6.49936 38.6783 7.07073Z" fill="#CBCBCB"/>
<path d="M42.1839 8.95634C41.6092 9.3563 40.8047 9.8134 40.4024 9.95625C39.3393 10.3562 39.6553 10.9847 40.8334 10.8705C41.523 10.7847 41.954 10.9562 42.5287 11.499C43.0746 12.0132 43.5918 12.2418 44.1664 12.2132C44.6262 12.1561 45.402 12.356 45.9192 12.6132C47.0972 13.2417 47.2122 13.2131 47.0972 12.4703C47.0398 11.9561 47.1834 11.8132 47.9592 11.6418C49.5683 11.3276 49.7407 10.899 48.6776 9.95625C47.7581 9.12775 46.6662 8.72778 44.425 8.41353C43.4768 8.29925 43.0459 8.38496 42.1839 8.95634ZM43.8504 9.38487C43.9653 9.55628 43.7067 9.67056 43.2757 9.67056C42.8447 9.67056 42.5861 9.55628 42.7011 9.38487C42.7873 9.21346 43.0459 9.09918 43.2757 9.09918C43.5056 9.09918 43.7642 9.21346 43.8504 9.38487ZM46.8674 9.75626C48.8787 10.4705 49.0798 11.099 47.2696 11.099C46.3789 11.099 46.264 11.1847 46.4364 11.6704C46.6662 12.4417 46.4076 12.3846 45.2296 11.499C44.5112 10.9562 44.2814 10.8705 44.2814 11.2133C44.2814 11.8704 43.6205 11.7561 43.1608 11.0704C42.7873 10.4419 42.816 10.4419 44.425 10.6419C45.6893 10.7847 46.0341 10.7276 45.9479 10.4705C45.8617 10.2705 45.4594 10.0705 45.0572 10.0134C44.6262 9.95625 44.3388 9.78483 44.425 9.64199C44.6549 9.27059 45.6606 9.32773 46.8674 9.75626Z" fill="#CBCBCB"/>
<path d="M35.7188 9.67059C33.5926 10.9848 33.0754 13.2703 34.5407 14.9558C35.2878 15.7843 35.6326 15.9557 36.5808 15.9557C38.1611 15.9557 39.3967 14.6701 39.3967 13.0703C39.3967 11.6133 38.5059 9.87057 37.529 9.44204C36.6095 9.01351 36.8394 8.98494 35.7188 9.67059ZM37.8163 11.4704C38.0175 12.4703 37.6439 13.7559 37.0693 14.1273C36.8107 14.2702 36.7819 14.0988 36.8969 13.3845C37.0118 12.8703 37.098 12.0132 37.098 11.499C37.098 10.2705 37.5865 10.242 37.8163 11.4704ZM36.236 12.2418C36.236 13.0132 36.1211 13.6702 35.9487 13.6702C35.6326 13.6702 35.5464 11.9847 35.8337 11.2704C36.1211 10.4991 36.236 10.7562 36.236 12.2418ZM35.0867 12.8417C35.0867 13.5274 34.9717 13.9274 34.7993 13.8131C34.3109 13.5274 34.4833 11.6704 35.0005 11.6704C35.0579 11.6704 35.0867 12.1847 35.0867 12.8417ZM38.5347 13.9274C37.96 15.013 37.7014 14.5559 38.1899 13.2988C38.5921 12.3561 38.7071 12.2132 38.7645 12.7275C38.822 13.0703 38.7071 13.6131 38.5347 13.9274Z" fill="#CBCBCB"/>
<path d="M44.2526 13.356C42.816 13.6417 40.6897 14.9273 39.8565 16.0415C36.4372 20.5268 37.6153 27.3262 42.27 29.6688C45.833 31.4687 49.6545 30.8973 52.5565 28.1261C54.2518 26.5262 54.9126 24.9264 54.9126 22.498C54.9126 17.4985 51.6371 13.7559 46.8674 13.2988C46.0054 13.2131 44.8273 13.2417 44.2526 13.356ZM49.5395 14.813C51.7233 15.6415 53.1599 17.4128 53.9357 20.3268C54.5104 22.498 54.4242 23.6408 53.5909 25.3264C51.5509 29.4403 46.8961 31.0687 42.9022 29.0689C40.2013 27.7261 38.8508 25.4406 38.8221 22.1838C38.8221 18.7269 40.4598 15.8129 43.132 14.4416C44.3963 13.8131 47.2696 13.9845 49.5395 14.813Z" fill="#CBCBCB"/>
<path d="M42.3561 15.6414C39.9712 17.3556 38.9656 21.7552 40.2586 24.7549C41.293 27.0976 43.9651 29.0974 44.9708 28.2689C45.4305 27.8975 45.8615 24.3264 45.5742 23.4122C45.488 23.0979 45.1145 22.8122 44.7697 22.7551C44.2525 22.6694 44.1375 22.498 44.1663 21.5838C44.2237 20.2125 44.4249 20.0125 45.1719 20.6696C45.9765 21.4124 46.2925 20.8696 46.2925 18.784C46.2925 16.6985 45.8328 15.4129 44.9421 15.0701C43.8789 14.6701 43.6203 14.7272 42.3561 15.6414ZM45.1719 16.4414C45.6317 17.6698 45.8041 18.7555 45.6029 19.2697C45.2869 20.0696 44.3674 19.0126 44.4823 18.0412C44.626 16.927 44.195 16.2985 43.5916 16.7842C43.0169 17.2699 43.0169 17.7841 43.5916 18.3841C44.0226 18.784 44.0226 18.8983 43.5916 19.7839C43.1031 20.7838 42.9882 22.4694 43.3617 22.9551C43.4767 23.1265 43.9077 23.4693 44.3099 23.7264C44.9995 24.155 45.0283 24.2978 44.8559 25.6406C44.5973 27.6975 44.3387 27.8404 42.902 26.8119C41.3217 25.6977 40.862 24.9263 40.5459 22.9265C40.0574 20.0982 41.0056 17.527 43.0457 16.1843C44.1663 15.47 44.8271 15.5272 45.1719 16.4414Z" fill="#CBCBCB"/>
<path d="M40.9771 20.8124C40.7185 21.241 41.3506 21.9552 41.9828 21.9552C42.7298 21.9552 42.9022 21.6124 42.3563 21.041C41.8391 20.4696 41.2644 20.3839 40.9771 20.8124Z" fill="#CBCBCB"/>
<path d="M43.1895 24.4122C42.4712 24.8979 42.3563 25.8121 42.9597 26.0407C43.6205 26.2978 44.4251 24.9265 44.0228 24.298C43.8791 24.0408 43.6493 24.098 43.1895 24.4122Z" fill="#CBCBCB"/>
<path d="M47.2694 15.7558C47.1832 15.9843 47.1545 17.2414 47.212 18.5555C47.2982 20.7839 47.3269 20.9553 47.959 21.041C48.4762 21.1267 48.5912 21.3267 48.5912 22.1266C48.5912 23.0123 48.505 23.098 47.7579 23.098C46.6948 23.098 46.5511 23.3265 46.3787 25.3835C46.2063 27.1833 46.6086 28.6404 47.3556 28.926C47.959 29.1832 50.545 27.6976 51.3208 26.6691C53.3321 24.0122 53.5333 21.6124 52.0392 18.6412C51.4932 17.6128 50.66 16.4414 50.1715 16.07C49.1658 15.3272 47.528 15.1558 47.2694 15.7558ZM50.4301 17.4699C51.7518 19.0698 52.3265 20.4696 52.3265 22.0981C52.3265 24.4979 50.6312 27.2405 48.7061 27.9261C47.7292 28.269 47.5855 28.269 47.2407 27.7833C46.8384 27.2405 46.7522 25.9549 47.0396 24.8978C47.1545 24.4693 47.4131 24.2693 47.8154 24.3264C48.5912 24.4122 49.1658 23.3265 49.1658 21.7552C49.1658 20.7839 49.0222 20.4411 48.4475 20.0697C47.8728 19.6983 47.7292 19.384 47.7292 18.3841C47.7292 16.7271 47.959 16.2414 48.7348 16.2414C49.1946 16.2414 49.7692 16.67 50.4301 17.4699Z" fill="#CBCBCB"/>
<path d="M48.9361 18.0127C48.735 18.2127 48.5913 18.6698 48.5913 19.0126C48.5913 19.6125 48.6775 19.6411 49.166 19.384C49.7406 19.0697 49.9418 18.1269 49.5108 17.8413C49.3671 17.7555 49.1085 17.8413 48.9361 18.0127Z" fill="#CBCBCB"/>
<path d="M49.9418 22.4123C49.4821 22.8694 49.7982 23.1265 50.6889 23.0408C51.1773 22.9836 51.5796 22.8122 51.5509 22.6694C51.4647 22.3265 50.2291 22.1266 49.9418 22.4123Z" fill="#CBCBCB"/>
<path d="M48.0166 25.1264C48.0166 25.6977 48.62 26.5262 49.0223 26.5262C49.7119 26.5262 49.7981 26.012 49.1659 25.3835C48.5338 24.755 48.0166 24.6407 48.0166 25.1264Z" fill="#CBCBCB"/>
<path d="M24.7139 14.9559C23.1049 15.7843 22.0992 16.9271 21.1223 19.0412C19.7431 21.9838 20.2315 25.0692 22.5015 27.5262C23.6508 28.8118 24.2542 29.1832 25.5472 29.5546C27.5298 30.1259 30.0583 29.926 31.8685 29.0689C33.3626 28.3547 34.9142 26.3548 35.3739 24.5836C35.69 23.2408 35.3165 19.8983 34.7418 19.0983C33.7361 17.7842 31.0639 15.2701 30.1445 14.7844C28.6216 14.0131 26.3804 14.0702 24.7139 14.9559ZM30.6617 15.9843C32.6155 17.2985 34.1384 19.2126 34.5119 20.841C35.0004 22.8694 34.7131 24.9835 33.7361 26.3548C32.6155 27.8976 31.7823 28.4404 29.5698 29.0118C27.7309 29.4974 27.5872 29.4974 26.1218 28.9832C24.3116 28.3832 23.3634 27.6404 22.3291 26.0692C20.3177 23.0123 21.4958 17.8699 24.6277 15.9272C26.7827 14.613 28.6791 14.613 30.6617 15.9843Z" fill="#CBCBCB"/>
<path d="M26.7541 16.67C26.2656 17.2414 26.5242 18.0699 27.2138 18.1841C27.9896 18.2984 28.5643 17.5842 28.3344 16.8128C28.1333 16.1557 27.2713 16.0415 26.7541 16.67ZM27.6161 17.3842C27.6161 17.5271 27.4724 17.6699 27.3 17.6699C27.1564 17.6699 27.0989 17.5271 27.1851 17.3842C27.2713 17.2128 27.415 17.0985 27.5012 17.0985C27.5586 17.0985 27.6161 17.2128 27.6161 17.3842Z" fill="#CBCBCB"/>
<path d="M22.9037 18.6698C22.5589 19.0126 22.5301 19.2697 22.7313 19.6982C23.1048 20.3553 23.6794 20.4125 24.1966 19.7839C24.4552 19.4697 24.484 19.2126 24.2828 18.8697C23.8518 18.2126 23.4496 18.1555 22.9037 18.6698Z" fill="#CBCBCB"/>
<path d="M30.2596 18.8697C29.7712 19.3554 29.8286 20.441 30.3746 20.641C31.1504 20.9267 31.9836 20.2982 31.8687 19.4411C31.7825 18.584 30.863 18.2698 30.2596 18.8697ZM31.0929 19.7553C30.7194 20.1267 30.3458 19.8411 30.6332 19.4125C30.7194 19.2411 30.9492 19.184 31.1216 19.2697C31.294 19.3839 31.294 19.5554 31.0929 19.7553Z" fill="#CBCBCB"/>
<path d="M26.3806 19.2982C26.2656 19.3839 26.1794 19.841 26.1794 20.2982C26.1794 21.2124 26.8403 21.6409 27.5586 21.1838C28.2482 20.7553 28.277 20.3267 27.6448 19.6982C27.0127 19.0697 26.6966 18.9554 26.3806 19.2982ZM27.3288 20.241C27.3288 20.3839 27.1851 20.5267 27.0127 20.5267C26.869 20.5267 26.8116 20.3839 26.8978 20.241C26.984 20.0696 27.1276 19.9553 27.2138 19.9553C27.2713 19.9553 27.3288 20.0696 27.3288 20.241Z" fill="#CBCBCB"/>
<path d="M22.6165 22.3838C21.6109 23.4123 22.4154 25.0407 23.5647 24.3265C24.2256 23.8979 24.2831 22.9837 23.6509 22.4124C23.1337 21.9553 23.0475 21.9553 22.6165 22.3838ZM23.5935 23.4123C23.5935 23.5551 23.3923 23.6694 23.1625 23.6694C22.7315 23.6694 22.5878 23.3266 22.9039 23.0123C23.1337 22.7837 23.5935 23.0409 23.5935 23.4123Z" fill="#CBCBCB"/>
<path d="M32.2133 22.3837C31.4662 23.2694 32.7305 24.4121 33.5638 23.5836C34.1097 23.0408 33.7936 21.9552 33.104 21.9552C32.8167 21.9552 32.4144 22.1552 32.2133 22.3837Z" fill="#CBCBCB"/>
<path d="M28.2196 23.0408C28.0184 23.4407 28.0472 23.755 28.3632 24.1835C28.9666 25.0692 30.001 24.5549 29.8574 23.4407C29.7424 22.4694 28.6793 22.2123 28.2196 23.0408ZM29.3402 23.5264C29.3402 23.755 29.2252 23.955 29.0528 23.955C28.9092 23.955 28.7655 23.755 28.7655 23.5264C28.7655 23.2979 28.9092 23.0979 29.0528 23.0979C29.2252 23.0979 29.3402 23.2979 29.3402 23.5264Z" fill="#CBCBCB"/>
<path d="M24.9439 23.8407C24.5703 24.2121 24.7427 25.412 25.1737 25.5548C25.7771 25.8119 26.5242 25.1263 26.4093 24.4121C26.3231 23.8121 25.3461 23.4407 24.9439 23.8407ZM25.7484 24.4978C25.8346 24.6406 25.7771 24.8406 25.6047 24.9549C25.4611 25.0406 25.3174 24.9263 25.3174 24.6977C25.3174 24.1835 25.4898 24.0978 25.7484 24.4978Z" fill="#CBCBCB"/>
<path d="M30.4033 25.2978C29.7711 25.8978 30.7193 27.1262 31.6388 26.8977C32.2996 26.7263 32.3571 26.4406 31.9261 25.6406C31.6388 25.0978 30.7768 24.8978 30.4033 25.2978Z" fill="#CBCBCB"/>
<path d="M26.9552 26.8404C25.8921 27.4404 26.7254 29.0402 27.9034 28.6688C28.2769 28.5546 28.4781 28.2403 28.4781 27.8118C28.4781 26.9833 27.6735 26.469 26.9552 26.8404ZM27.9034 27.7832C27.9034 27.8689 27.7885 28.0118 27.6161 28.0975C27.4724 28.1832 27.3288 28.126 27.3288 27.9832C27.3288 27.8118 27.4724 27.6689 27.6161 27.6689C27.7885 27.6689 27.9034 27.7261 27.9034 27.7832Z" fill="#CBCBCB"/>
<path d="M15.462 19.0983C14.5138 19.8411 13.5369 21.4124 13.5369 22.2123C13.5369 23.2693 15.031 24.5264 16.2665 24.5264C17.7032 24.5264 18.3353 24.1264 18.8812 22.8694C19.4559 21.4695 19.1973 20.1839 18.1054 19.2697C17.0423 18.3841 16.4389 18.3269 15.462 19.0983ZM18.1916 20.3267C18.91 21.4409 17.7894 23.955 16.5826 23.955C15.5769 23.955 14.3127 22.3837 14.5425 21.4124C14.7724 20.4982 15.2034 19.9553 15.9792 19.6697C16.6113 19.4411 17.8468 19.8125 18.1916 20.3267Z" fill="#CBCBCB"/>
<path d="M15.7492 20.5552C15.1171 20.9266 15.1171 22.3265 15.7205 22.955C16.64 23.8692 17.7893 22.955 17.4445 21.5837C17.2146 20.6409 16.4388 20.1838 15.7492 20.5552ZM16.9273 22.0408C16.9848 22.3265 16.8411 22.5265 16.5825 22.5265C16.2952 22.5265 16.1228 22.2693 16.1228 21.9265C16.1228 21.2409 16.7836 21.3266 16.9273 22.0408Z" fill="#CBCBCB"/>
<path d="M58.6766 21.0125C58.1019 21.3267 57.4411 21.9838 57.0963 22.6409C56.5791 23.6694 56.5791 23.8408 56.9526 24.9264C57.4411 26.3834 59.4524 27.6119 60.7741 27.269C62.1533 26.9262 62.9578 25.7835 62.9578 24.1836C62.9578 23.0123 62.8142 22.6409 62.0384 21.8124C60.8603 20.5839 59.9409 20.3554 58.6766 21.0125ZM60.8891 21.9552C62.4406 22.898 62.8142 24.5836 61.7223 25.8406C60.7454 26.9548 59.6535 26.8691 58.418 25.5263C57.6135 24.6407 57.4698 24.3265 57.6135 23.5837C57.8146 22.5837 58.2743 21.9838 59.0789 21.6695C59.8834 21.3267 59.8259 21.3267 60.8891 21.9552Z" fill="#CBCBCB"/>
<path d="M58.849 23.0123C58.4468 23.3837 58.6479 24.7264 59.1651 25.1835C60.3719 26.2691 61.9235 25.2692 61.2052 23.8693C61.004 23.5265 60.7167 23.1551 60.5443 23.0408C60.142 22.7551 59.1076 22.7551 58.849 23.0123ZM60.4868 24.155C60.7167 24.6978 60.257 25.2406 59.826 24.9835C59.3662 24.6978 59.4524 23.6693 59.9122 23.6693C60.142 23.6693 60.4006 23.8979 60.4868 24.155Z" fill="#CBCBCB"/>
<path d="M17.0136 26.1262C16.6688 26.5548 16.4102 27.1833 16.4102 27.5261C16.4102 28.2403 15.4333 29.6402 15.1172 29.3259C15.0023 29.2402 15.1172 28.8403 15.3758 28.4689C15.9792 27.5547 15.4907 26.869 14.0541 26.6405C13.1921 26.4976 12.876 26.5833 12.3013 27.1833C10.0889 29.3545 11.0658 33.497 14.1115 35.0111C16.4389 36.211 19.7432 35.6397 20.634 33.9255C21.1512 32.9256 21.0937 32.3542 20.3179 31.4686C19.6283 30.6972 19.6283 30.6687 19.0249 31.2115C18.6801 31.5257 18.3353 31.6686 18.2491 31.5829C17.8469 31.2115 18.4503 30.4973 19.5708 30.0687C21.5822 29.2688 21.3523 27.6118 18.9962 26.0119C17.8181 25.212 17.7319 25.212 17.0136 26.1262ZM19.5421 27.5832C20.2892 28.526 20.2317 28.8403 19.0536 29.4116C17.6457 30.1259 17.2722 30.5258 17.2722 31.3829C17.2722 31.8971 17.5021 32.2685 18.0193 32.5542C18.6801 32.897 18.7951 32.897 19.1686 32.3828C19.5421 31.8971 19.6283 31.8686 19.8582 32.24C20.2317 32.8399 20.203 33.1542 19.7145 33.8398C18.9674 34.9254 17.7319 35.2397 15.9217 34.7826C13.2208 34.1541 11.8129 32.4685 11.8129 29.9545C11.8129 29.0117 11.9853 28.5831 12.6461 27.9261C13.5656 27.0404 13.738 26.9547 14.3701 27.3547C14.7149 27.5832 14.6862 27.7261 14.1115 28.1832C13.5943 28.5831 13.4794 28.8974 13.6518 29.4688C14.0828 31.2401 16.0367 30.5258 16.8699 28.326C17.1285 27.5832 17.5021 26.7833 17.6457 26.6119C17.9905 26.1548 18.7376 26.5262 19.5421 27.5832Z" fill="#CBCBCB"/>
<path d="M56.1194 29.0689C54.97 29.3546 53.7632 29.8402 53.4472 30.1259C52.384 31.0401 51.4646 32.7543 50.9761 34.6112C49.9417 38.7252 51.8668 42.6677 55.6022 44.0961C56.694 44.5246 57.4698 44.5818 59.7972 44.4389C63.2164 44.2675 64.4232 43.6961 65.745 41.6963C66.9518 39.8679 67.3828 38.2109 67.1242 36.0968C66.8656 33.7827 66.176 32.3257 64.6818 30.983C62.2395 28.7832 59.5961 28.2118 56.1194 29.0689ZM61.6361 29.8402C66.6644 31.5544 68.0436 39.0965 63.9635 42.4677C62.4981 43.639 59.7972 44.1247 57.1825 43.6676C54.0793 43.0962 52.93 42.1534 52.0105 39.4394C51.2634 37.1824 51.3784 35.7254 52.499 33.0971C53.4472 30.9258 53.677 30.7259 55.7746 30.1259C58.7053 29.2974 59.8547 29.2403 61.6361 29.8402Z" fill="#CBCBCB"/>
<path d="M57.2688 31.44C56.5792 32.1257 57.0677 33.3827 58.0733 33.3827C58.3032 33.3827 58.6767 33.1256 58.8779 32.7827C59.1939 32.2685 59.1939 32.0971 58.7629 31.64C58.1883 31.0115 57.7573 30.9543 57.2688 31.44ZM58.3032 32.4971C58.3894 32.7256 58.2745 32.8399 58.0446 32.7542C57.8435 32.697 57.6136 32.4685 57.5561 32.2685C57.4699 32.04 57.5849 31.9257 57.8147 32.0114C58.0159 32.0685 58.2457 32.2971 58.3032 32.4971Z" fill="#CBCBCB"/>
<path d="M53.7346 32.9827C53.476 33.297 53.4472 33.5541 53.6771 33.8969C54.3954 35.0682 56.1482 34.2969 55.4873 33.1255C55.1138 32.4113 54.2805 32.3542 53.7346 32.9827ZM54.9126 33.5255C54.9126 33.7541 54.7977 33.954 54.6253 33.954C54.4816 33.954 54.338 33.7541 54.338 33.5255C54.338 33.297 54.4816 33.097 54.6253 33.097C54.7977 33.097 54.9126 33.297 54.9126 33.5255Z" fill="#CBCBCB"/>
<path d="M62.5557 33.4113C62.1821 33.9827 62.1534 34.1541 62.4982 34.6684C62.6993 34.9826 63.1878 35.2397 63.5613 35.2397C64.136 35.2397 64.2509 35.0969 64.2509 34.4112C64.2509 33.897 64.0211 33.4399 63.6188 33.1828C63.0729 32.8114 62.9579 32.84 62.5557 33.4113ZM63.7625 34.1827C63.8199 34.3827 63.6763 34.5255 63.4177 34.5255C63.1591 34.5255 62.9579 34.3255 62.9579 34.0684C62.9579 33.5828 63.5901 33.6685 63.7625 34.1827Z" fill="#CBCBCB"/>
<path d="M59.9983 35.2397C59.3375 35.7254 59.5674 36.6967 60.4293 36.9824C60.8603 37.0967 61.1764 37.011 61.435 36.6396C61.9235 35.9825 61.8947 35.8111 61.3488 35.2683C60.8029 34.7255 60.6592 34.7255 59.9983 35.2397ZM61.0615 36.2682C60.7741 36.7253 60.3719 36.5253 60.3719 35.9254C60.3719 35.4111 60.4293 35.3825 60.8029 35.6682C61.0327 35.8682 61.1477 36.1253 61.0615 36.2682Z" fill="#CBCBCB"/>
<path d="M56.263 35.5541C55.9182 35.8969 56.0331 36.7254 56.4928 37.0968C57.0675 37.5825 57.8433 36.954 57.7284 36.1255C57.6422 35.5255 56.6652 35.1541 56.263 35.5541ZM57.2112 36.2397C57.2112 36.3826 57.0962 36.5254 56.9238 36.5254C56.7802 36.5254 56.6365 36.3826 56.6365 36.2397C56.6365 36.0683 56.7802 35.954 56.9238 35.954C57.0962 35.954 57.2112 36.0683 57.2112 36.2397Z" fill="#CBCBCB"/>
<path d="M53.361 37.1824C52.7576 37.6109 52.8438 38.468 53.5334 38.8965C53.8782 39.1251 54.1368 39.0965 54.4529 38.8394C55.0563 38.3537 55.0563 37.211 54.4529 36.9824C53.8782 36.7539 53.9644 36.7539 53.361 37.1824ZM54.338 38.0966C54.338 38.3252 54.223 38.5251 54.0506 38.5251C53.907 38.5251 53.7633 38.3252 53.7633 38.0966C53.7633 37.8681 53.907 37.6681 54.0506 37.6681C54.223 37.6681 54.338 37.8681 54.338 38.0966Z" fill="#CBCBCB"/>
<path d="M62.6131 38.1823C61.5787 38.4108 62.1821 40.2393 63.274 40.2393C63.9348 40.2393 64.1934 39.7822 63.9923 38.9822C63.8199 38.2394 63.3889 38.0109 62.6131 38.1823ZM63.4176 39.5536C63.274 39.925 63.1303 39.9536 62.9004 39.725C62.728 39.5536 62.6706 39.2108 62.7855 38.9251C62.9292 38.5537 63.0728 38.5251 63.3027 38.7537C63.4751 38.9251 63.5326 39.2679 63.4176 39.5536Z" fill="#CBCBCB"/>
<path d="M56.1195 39.7251C55.3437 40.4965 56.1195 41.9249 57.0964 41.5535C57.3837 41.4392 57.4987 41.0964 57.4412 40.4679C57.355 39.468 56.7229 39.1251 56.1195 39.7251ZM56.924 40.525C56.924 40.8393 56.8091 41.0964 56.6367 41.0964C56.493 41.0964 56.3493 40.8393 56.3493 40.525C56.3493 40.2108 56.493 39.9536 56.6367 39.9536C56.8091 39.9536 56.924 40.2108 56.924 40.525Z" fill="#CBCBCB"/>
<path d="M59.8547 40.5822C59.3949 41.0393 59.4237 41.525 59.9121 41.9249C60.4293 42.3535 61.2339 42.0392 61.2339 41.4107C61.2339 40.925 60.7167 40.2394 60.3719 40.2394C60.2857 40.2394 60.0558 40.3822 59.8547 40.5822ZM60.6592 41.4107C60.6592 41.5535 60.5443 41.6678 60.3719 41.6678C60.2282 41.6678 60.0845 41.4678 60.0845 41.2107C60.0845 40.9822 60.2282 40.8679 60.3719 40.9536C60.5443 41.0393 60.6592 41.2393 60.6592 41.4107Z" fill="#CBCBCB"/>
<path d="M38.3048 29.5545C37.0692 30.183 36.6957 30.9258 36.9256 32.2971C37.3566 34.8969 38.3622 35.8397 40.3161 35.4111C42.155 34.9826 42.9308 33.9541 42.7584 32.1543C42.5285 29.7259 40.431 28.4975 38.3048 29.5545ZM41.0057 30.183C41.9826 30.8401 42.3274 33.297 41.5229 34.0684C40.4597 35.154 38.9082 35.0112 38.2186 33.8113C37.3278 32.24 37.2991 31.44 38.0749 30.6687C38.7932 29.9545 40.3161 29.6973 41.0057 30.183Z" fill="#CBCBCB"/>
<path d="M38.8508 31.4971C38.6497 31.7257 38.5347 32.2685 38.5922 32.7256C38.6784 33.4398 38.7933 33.5255 39.8277 33.5255C40.8046 33.5255 41.0058 33.4112 41.0632 32.897C41.2644 31.44 39.7128 30.4686 38.8508 31.4971ZM40.23 32.7256C39.799 33.2398 39.253 32.7542 39.5116 32.0971C39.6553 31.6971 39.7702 31.6685 40.115 31.9542C40.4598 32.2399 40.4886 32.4113 40.23 32.7256Z" fill="#CBCBCB"/>
<path d="M27.4725 32.1257C25.9209 33.1256 24.4267 35.1254 24.2543 36.4682C24.1107 37.4681 24.3405 38.6965 24.8865 40.0679C25.0589 40.4392 24.5991 40.2393 23.3349 39.3822C20.9788 37.7823 18.5939 36.8396 16.9848 36.811C15.1747 36.811 13.0771 37.868 11.2957 39.6679C9.34182 41.6391 8.85335 42.9819 8.99702 45.8673C9.14068 48.8099 10.1463 50.4955 13.1059 52.6667C15.9505 54.7523 17.3584 55.4094 19.2835 55.5808C20.634 55.7236 21.2086 55.6093 22.6453 54.9522C23.6222 54.5237 24.7141 53.8381 25.1163 53.4381C26.2369 52.2953 27.0702 50.1527 27.2426 48.01C27.3863 46.153 27.2713 45.6102 26.0358 42.3819C25.8347 41.8963 25.9209 41.9248 26.6392 42.5533C28.0471 43.8389 29.7424 44.5246 31.4376 44.5246C33.5352 44.5246 35.8051 43.3818 36.9257 41.7534C37.6727 40.6678 37.7877 40.2678 37.7877 38.468C37.8164 36.5824 37.7302 36.2682 36.9831 35.2397C34.5408 31.9543 33.6214 31.3829 30.6906 31.3829C28.9091 31.3829 28.4207 31.4972 27.4725 32.1257ZM33.018 32.7828C34.3684 33.4684 35.3454 34.4969 35.3454 35.2397C35.3454 35.554 35.4316 36.5253 35.5178 37.3824C35.6614 38.668 35.5752 39.1251 35.1155 39.8964C34.3684 41.0678 32.2422 42.4105 30.748 42.6676C28.1046 43.1247 25.2025 40.4107 25.2025 37.5252C25.2025 36.2682 25.3462 35.8397 26.2944 34.5826C26.8978 33.7541 27.7311 32.8971 28.1621 32.6685C29.2539 32.0686 31.725 32.1257 33.018 32.7828ZM36.9257 36.1253C37.0119 36.3825 37.0981 36.9253 37.0981 37.3252C37.0693 37.9823 37.0119 37.9538 36.6671 36.9538C36.1499 35.5825 36.1786 35.6682 36.4947 35.6682C36.6383 35.6682 36.8395 35.8682 36.9257 36.1253ZM18.4502 38.068C22.9039 39.4108 25.691 42.0105 26.4955 45.6102C26.984 47.7815 25.9496 51.6383 24.5704 52.8382C23.3923 53.8666 21.0362 54.8094 19.6283 54.8094C18.5364 54.8094 17.9905 54.638 17.0998 53.9523C16.4964 53.4952 15.7493 53.0953 15.4907 53.0953C15.2034 53.0953 14.9735 52.9524 14.9735 52.8096C14.9735 52.6382 14.3701 52.2382 13.6231 51.8668C12.0427 51.124 10.2325 48.9813 9.77281 47.2672C9.45675 46.153 9.62915 43.8389 10.1176 42.5819C10.8072 40.8106 12.9909 38.868 15.2321 38.068C16.5538 37.5824 16.9274 37.5824 18.4502 38.068ZM36.5809 40.5821C36.0637 41.782 35.0868 42.8962 35.0868 42.2962C35.0868 41.9534 36.9257 39.0965 37.0406 39.2394C37.0981 39.2965 36.8969 39.8964 36.5809 40.5821ZM32.8743 43.5818C32.6732 43.639 32.3284 43.639 32.156 43.5818C31.9548 43.4961 32.0985 43.439 32.5008 43.439C32.903 43.439 33.0467 43.4961 32.8743 43.5818Z" fill="#CBCBCB"/>
<path d="M15.2034 39.9536C14.6 40.2679 13.6231 41.0107 13.0197 41.6106C12.0428 42.5248 11.8704 42.9248 11.5543 44.7247C10.9509 48.2101 11.7554 49.9528 13.9679 49.9528C15.0597 49.9528 15.3183 49.8385 16.0079 48.9528C16.6401 48.1243 16.7263 47.7815 16.5539 46.9245C16.3527 45.7531 17.0136 44.6961 17.8181 44.9532C18.0767 45.0103 18.4215 44.9818 18.5652 44.8675C19.0537 44.5247 19.8582 43.1534 19.8582 42.6391C19.8582 41.7821 18.6514 40.1822 17.6745 39.7822C16.4964 39.2966 16.4964 39.2966 15.2034 39.9536ZM17.9905 40.9536C18.7089 41.6678 18.8238 42.1535 18.5365 43.2962C18.3928 43.7819 18.1342 43.9533 17.5595 43.9533C16.1516 43.9533 15.2609 45.3817 15.6631 46.9816C15.9505 48.1243 15.1747 49.0957 13.9679 49.0957C12.2152 49.0957 11.698 47.4958 12.4163 44.2104C12.6749 43.0391 13.0197 42.4677 14.0541 41.4964C15.6344 39.9822 16.8699 39.8108 17.9905 40.9536Z" fill="#CBCBCB"/>
<path d="M15.6343 41.2678C15.4332 41.782 16.4389 43.239 17.0135 43.239C17.5307 43.239 17.4158 41.3535 16.8986 41.0392C16.3527 40.6964 15.8355 40.7821 15.6343 41.2678Z" fill="#CBCBCB"/>
<path d="M13.2782 43.7819C12.9047 44.239 13.2782 44.6389 14.3413 44.8961C15.232 45.096 15.5481 44.2961 14.8298 43.7819C14.1402 43.2676 13.6805 43.2676 13.2782 43.7819Z" fill="#CBCBCB"/>
<path d="M13.6517 46.5244C12.8471 46.8387 12.5598 47.6672 13.0483 48.1528C13.5367 48.6385 14.2263 48.3814 14.801 47.5243C15.232 46.8958 15.232 46.8101 14.7435 46.5815C14.4849 46.4101 13.9965 46.4101 13.6517 46.5244Z" fill="#CBCBCB"/>
<path d="M21.5821 42.182C21.1798 42.4962 20.6339 43.2104 20.3178 43.7818C19.8006 44.7246 19.8006 44.8389 20.2604 45.7816C20.6914 46.7244 20.6914 46.8673 20.2891 47.6672C19.7719 48.6671 19.7719 48.6671 18.795 48.0386C18.0766 47.5815 18.0479 47.5815 17.5307 48.21C16.6687 49.267 16.7836 51.4383 17.7893 52.5239C18.5938 53.4381 20.1167 53.8666 21.3522 53.581C23.0475 53.1524 25.3461 49.8384 25.7484 47.2387C25.9783 45.6674 25.4323 43.2961 24.6565 42.5534C23.6796 41.6677 22.4441 41.4963 21.5821 42.182ZM23.8807 42.8105C25.0301 43.4104 25.3749 46.5244 24.5703 48.8671C24.3405 49.5813 23.6509 50.6955 23.0475 51.3526C22.0418 52.4382 21.8407 52.5239 20.4615 52.5239C19.2547 52.5239 18.8237 52.3811 18.2778 51.8097C17.4732 51.0383 17.3583 50.0384 17.9617 49.2385C18.364 48.6957 18.364 48.6957 18.9674 49.2385C19.5995 49.7813 19.5995 49.7813 20.3753 49.0099C21.1511 48.2386 21.3235 47.0958 20.9787 44.8389C20.9212 44.4675 21.0362 44.0961 21.2373 44.0389C21.4384 43.9532 21.5821 44.1532 21.5821 44.496C21.5821 45.3245 22.0418 45.2388 22.6452 44.3532C23.0187 43.7532 23.0475 43.4961 22.7889 43.0676C22.5015 42.6105 22.5303 42.5248 22.9038 42.5248C23.1337 42.5248 23.5934 42.6391 23.8807 42.8105Z" fill="#CBCBCB"/>
<path d="M22.3579 45.6103C21.6395 46.3816 21.7545 46.8102 22.6739 46.8102C23.852 46.8102 24.3979 46.3816 23.9957 45.7531C23.5359 45.0389 22.9325 44.9818 22.3579 45.6103Z" fill="#CBCBCB"/>
<path d="M21.0073 48.8957C21.0073 49.1242 21.3234 49.5813 21.7257 49.9527C22.3003 50.4955 22.5014 50.5527 22.875 50.2384C23.4784 49.7527 23.4209 49.1814 22.76 48.81C21.9843 48.41 21.0073 48.4386 21.0073 48.8957Z" fill="#CBCBCB"/>
<path d="M18.7087 50.7242C18.7087 51.7812 19.111 52.3526 19.6857 52.1526C20.2029 51.9526 20.2891 51.2955 19.8581 50.4956C19.3983 49.6671 18.7087 49.81 18.7087 50.7242Z" fill="#CBCBCB"/>
<path d="M47.758 31.8401C47.2121 32.2401 47.0397 32.2401 46.8098 31.9258C46.6087 31.6115 46.465 31.6401 46.1202 32.1544C45.8616 32.4972 45.4306 33.0686 45.1146 33.4114C44.741 33.8685 44.5686 34.4684 44.5686 35.5255C44.5686 36.6397 44.425 37.1253 43.994 37.5253C43.3619 38.0967 43.2182 38.8109 43.7641 38.8109C43.9365 38.8109 44.3962 38.5252 44.7698 38.1824C45.1433 37.8396 45.9766 37.4967 46.6662 37.411C47.4994 37.2968 47.873 37.0968 47.873 36.7825C47.873 36.5254 48.304 35.9826 48.8212 35.5541C49.8556 34.6684 49.9705 34.0399 49.2522 33.5257C48.7637 33.1543 48.7637 33.1257 49.2522 32.6115C49.5108 32.2972 49.7406 31.8972 49.7406 31.7258C49.7406 31.2402 48.5338 31.2973 47.758 31.8401ZM48.5051 32.8114C48.2178 33.5257 48.2465 33.7256 48.7062 34.0399C49.2234 34.4113 49.2234 34.4684 48.5913 35.0398C48.2178 35.3826 47.6718 35.7255 47.3845 35.8397C47.0397 35.9255 46.896 36.1826 46.9822 36.4111C47.0684 36.6682 46.9535 36.8111 46.58 36.8111C45.8042 36.8111 45.8616 36.554 46.7524 35.6398C47.2121 35.1541 47.442 34.6684 47.3558 34.4113C47.1259 33.8399 46.58 33.8114 46.58 34.3542C46.58 34.5827 46.4363 34.8684 46.2639 34.9541C46.0628 35.097 46.0053 34.7827 46.0628 34.0685C46.1202 33.3828 46.2926 32.9829 46.4938 33.0114C46.6949 33.0686 47.2696 32.84 47.7868 32.5258C48.304 32.2115 48.7637 31.9544 48.7924 31.9544C48.8212 31.9544 48.6775 32.3258 48.5051 32.8114ZM45.718 35.097C45.718 35.4112 45.603 35.6683 45.4306 35.6683C45.287 35.6683 45.1433 35.4112 45.1433 35.097C45.1433 34.7827 45.287 34.5256 45.4306 34.5256C45.603 34.5256 45.718 34.7827 45.718 35.097Z" fill="#CBCBCB"/>
<path d="M69.1067 37.0968C67.5551 37.7253 67.0379 40.1536 68.1585 41.6964C69.1929 43.1534 72.0374 43.4105 72.5546 42.0963C72.8707 41.2393 72.727 39.3823 72.296 38.5252C72.0374 38.0681 71.4628 37.4967 71.003 37.2396C70.0549 36.7539 69.9687 36.7539 69.1067 37.0968ZM71.2329 39.7251L71.549 41.525L71.434 40.0108C71.3191 38.6966 71.3766 38.5252 71.7214 38.8109C72.3535 39.3251 72.296 41.5535 71.6639 41.7821C71.3766 41.8678 71.003 42.0106 70.8307 42.0963C70.6295 42.2106 70.5146 41.525 70.4859 40.0965C70.4571 38.9252 70.5433 37.9538 70.6583 37.9538C70.8019 37.9538 71.0605 38.7538 71.2329 39.7251ZM68.9917 39.668C68.9917 40.2965 68.8768 40.8107 68.7331 40.8107C68.3883 40.8107 68.101 39.5251 68.3021 38.9823C68.6182 38.1538 68.9917 38.5252 68.9917 39.668ZM70.1411 40.2394C70.1411 41.0107 70.0261 41.7249 69.8537 41.8106C69.6813 41.9249 69.5664 41.325 69.5664 40.2394C69.5664 39.1537 69.6813 38.5538 69.8537 38.6681C70.0261 38.7538 70.1411 39.468 70.1411 40.2394Z" fill="#CBCBCB"/>
<path d="M41.1207 40.7821C37.9026 41.582 37.4716 41.982 34.4833 46.4959L34.0236 47.2101L33.0179 46.4387C31.0928 44.9531 29.5699 45.7531 31.2939 47.3244L32.1272 48.0672L31.2365 48.5528C30.748 48.8099 29.7998 49.667 29.1389 50.4955C28.162 51.6383 27.9034 52.2096 27.9034 53.0381C27.9034 53.6095 27.6735 54.6951 27.4149 55.4379C26.8977 56.9235 27.0414 57.4378 27.8172 56.7521C28.1045 56.495 28.9953 56.095 29.8285 55.8379C32.472 54.9808 34.1385 53.2953 34.9143 50.7241C35.058 50.267 35.1442 50.267 35.7188 50.6384C36.5808 51.1812 38.7645 51.7525 39.1093 51.524C39.4541 51.324 38.8507 50.0955 37.9313 49.1242C37.2992 48.4671 37.2992 48.41 37.7876 48.1243C39.1093 47.3529 40.0575 46.353 40.7471 44.9817C41.1494 44.1818 41.9252 42.8962 42.4711 42.1248C43.0171 41.382 43.3619 40.6392 43.2182 40.525C43.1033 40.3821 42.1551 40.4964 41.1207 40.7821ZM41.408 41.582C41.408 41.8677 40.4885 42.8105 40.2012 42.8105C39.8277 42.8105 39.9426 42.3248 40.4311 41.8391C40.8908 41.382 41.408 41.2392 41.408 41.582ZM39.684 42.6105C39.684 43.2676 39.1955 43.9532 38.7645 43.9532C38.4197 43.9532 38.5059 42.6676 38.8795 42.2962C39.3967 41.782 39.684 41.8963 39.684 42.6105ZM37.8451 44.696C37.7589 44.9246 37.5865 45.096 37.4141 45.096C36.9256 45.096 36.8682 43.9818 37.3566 43.3247L37.8164 42.6676L37.9026 43.4676C37.96 43.9247 37.9313 44.4675 37.8451 44.696ZM40.6609 43.8104C40.4598 44.2961 39.6265 44.8103 39.0519 44.8103C38.6496 44.7817 40.115 43.3819 40.546 43.3819C40.6897 43.3819 40.7471 43.5818 40.6609 43.8104ZM36.8107 45.1817C36.8107 45.6674 35.7188 46.6958 35.489 46.4387C35.2878 46.2387 36.2073 44.8103 36.5521 44.8103C36.6958 44.8103 36.8107 44.9817 36.8107 45.1817ZM39.0519 45.9531C38.5921 46.6387 38.1611 46.8387 37.6727 46.5244C37.098 46.1816 37.8164 45.3817 38.7071 45.3817C39.3392 45.3817 39.3679 45.4388 39.0519 45.9531ZM37.6727 47.0958C37.9888 47.2958 37.9313 47.4101 37.2992 47.6386C35.7476 48.2386 34.6557 47.81 35.8912 47.1244C36.4946 46.753 37.1268 46.753 37.6727 47.0958ZM33.3627 48.9242C33.3627 49.1528 32.9317 49.467 32.4432 49.667C31.926 49.867 31.6674 50.067 31.8686 50.1527C32.5294 50.4098 32.2134 50.8098 30.9204 51.4383C29.4837 52.1239 29.1964 52.6382 30.4319 52.3525C31.179 52.1811 31.179 52.1811 30.0584 53.3524C29.2826 54.1523 29.0815 54.5237 29.3975 54.5237C29.6561 54.5237 30.317 54.0095 30.8629 53.381C31.8686 52.2096 32.3283 51.924 32.041 52.6667C31.926 52.8953 32.0122 53.0953 32.1846 53.0953C32.357 53.0953 32.5007 52.6667 32.5007 52.1239C32.5007 51.6097 32.6731 51.0098 32.903 50.8383C33.5351 50.3241 33.7937 51.8383 33.219 52.7239C32.4432 53.8666 29.0815 55.7808 28.593 55.3237C28.5355 55.2379 28.5643 54.438 28.6505 53.4952C28.8229 52.0954 29.024 51.6383 30.0297 50.5812C31.5238 48.9528 33.3627 48.0386 33.3627 48.9242ZM37.2992 49.4385C37.529 49.6099 37.8451 50.0098 37.9888 50.2955C38.5059 51.2383 37.1842 50.8955 36.0062 49.7813L34.943 48.7528L35.92 48.9242C36.4659 49.0099 37.0693 49.2385 37.2992 49.4385ZM33.9661 51.1812C33.7362 51.4097 33.65 51.2954 33.65 50.7812C33.65 49.8384 34.0523 49.4385 34.1672 50.2384C34.2247 50.5812 34.1385 51.0098 33.9661 51.1812Z" fill="#CBCBCB"/>
<path d="M46.6949 41.0964C44.5399 41.5821 43.5917 42.2963 42.6435 44.239C41.0344 47.4673 41.408 49.7242 43.9365 51.9812C45.9191 53.781 48.0166 54.3809 50.0279 53.781C51.7232 53.2953 53.3897 51.924 53.9356 50.6099C54.5103 49.2671 54.4241 46.3245 53.792 44.9532C52.5564 42.2963 49.3096 40.4965 46.6949 41.0964ZM50.6601 42.582C52.0393 43.5533 52.4702 44.6675 52.4702 47.4387C52.4702 49.6671 52.4128 49.9813 51.7519 50.667C50.7175 51.7812 48.9648 52.524 47.2983 52.524C46.0915 52.524 45.6605 52.3811 44.7698 51.6383C43.4193 50.5241 42.5573 48.8957 42.5573 47.4101C42.5573 45.896 43.7066 43.3534 44.6836 42.7248C46.4075 41.5821 49.1947 41.5249 50.6601 42.582ZM52.6139 51.4955C52.2691 52.0669 51.9531 52.524 51.8956 52.524C51.8381 52.524 51.5508 52.6097 51.2635 52.724C50.9474 52.8382 51.206 52.4097 51.8956 51.6383C52.5277 50.9241 53.1024 50.3813 53.1598 50.4099C53.2173 50.467 52.9587 50.9527 52.6139 51.4955Z" fill="#CBCBCB"/>
<path d="M65.8311 44.6103C64.9117 45.0674 64.7968 45.9245 65.4002 47.4958C65.8886 48.7814 65.7737 50.067 65.1703 49.867C64.9692 49.8099 64.768 49.3242 64.6818 48.81C64.4807 47.5244 63.7624 47.0958 62.728 47.6672C61.751 48.2386 61.6361 49.0099 62.2395 50.8383C62.7854 52.4096 64.0497 54.0381 65.2278 54.6666C67.6701 55.9236 70.2273 55.3237 71.4629 53.2096C72.7559 51.0098 72.0375 48.0386 70.4285 49.0099C69.6527 49.4956 69.4515 49.0099 69.9975 47.9815C70.6009 46.7816 70.5434 46.1245 69.6814 45.1246C69.078 44.3818 68.7332 44.2389 67.7563 44.2389C67.0954 44.2389 66.2334 44.4103 65.8311 44.6103ZM68.647 45.3817C69.7101 46.0388 69.6814 45.8959 69.1355 47.1815C68.6183 48.4386 68.5895 49.7242 69.0493 50.1813C69.4803 50.6098 70.4285 50.6384 70.4285 50.2384C70.4285 49.8956 71.2043 49.867 71.4054 50.2098C71.7789 50.7812 71.1468 52.3811 70.1124 53.4381C69.0493 54.5523 68.9631 54.5809 67.5551 54.4666C65.8599 54.2952 64.2796 53.2096 63.5038 51.6383C62.5843 49.7813 62.5843 48.6957 63.5038 48.4671C63.7911 48.41 63.906 48.6671 63.9348 49.3528C63.9922 51.1526 65.4289 51.2955 66.4058 49.5813C66.7793 48.9528 66.7793 48.6957 66.4345 47.8958C65.6588 46.0102 65.6875 45.4674 66.6069 45.1531C67.6988 44.7532 67.5839 44.7532 68.647 45.3817Z" fill="#CBCBCB"/>
<path d="M6.64087 45.2959C6.64087 45.6102 7.47413 48.9242 8.07753 50.9525C8.36486 51.9525 10.8072 57.2948 11.1232 57.6377C11.1807 57.6948 11.2956 57.6948 11.3818 57.6091C11.468 57.5234 11.0658 56.4378 10.4911 55.2093C8.68093 51.3525 8.45106 50.6954 7.7902 48.0671C7.24427 45.8101 6.64087 44.3817 6.64087 45.2959Z" fill="#CBCBCB"/>
<path d="M53.8782 52.3525C51.4934 53.3809 49.1947 56.6664 48.9361 59.3804C48.5626 63.2087 52.0968 67.3511 56.0907 67.8368C58.5905 68.1225 60.6018 67.4083 62.4694 65.5799C64.2796 63.8086 64.9692 62.0088 64.9692 59.0376C64.9692 55.7522 64.0785 54.5808 60.3432 52.8096C58.8778 52.1239 58.1307 51.9525 56.6366 51.9525C55.6022 51.9811 54.3667 52.1525 53.8782 52.3525ZM59.395 53.2952C63.4751 54.6665 64.7106 56.5521 64.1072 60.4089C63.705 62.8087 63.0154 64.2086 61.4638 65.4942C58.7054 67.8368 54.5965 67.6368 51.9531 64.9799C50.2291 63.2944 49.6832 61.8945 49.8843 60.0089C50.1716 57.6091 50.5739 56.5235 51.6945 55.1237C53.4759 52.9238 56.2918 52.2382 59.395 53.2952Z" fill="#CBCBCB"/>
<path d="M54.9126 53.581C54.6827 53.6667 54.2805 53.9238 53.9931 54.1524C53.5621 54.5238 53.5621 54.6666 53.9357 55.5522L54.3667 56.5521L53.6196 56.0665C52.93 55.6094 52.8438 55.6094 52.3554 56.0665C51.0336 57.2664 50.8612 60.8661 52.0393 63.4658C53.1886 66.0085 56.4067 67.1798 58.5043 65.837C59.3375 65.2942 59.4237 64.4086 58.7916 62.8944C58.2744 61.666 57.9296 61.3803 56.8952 61.3803C56.0045 61.3803 55.7746 60.9518 55.9757 59.8376C56.0907 59.3233 55.947 58.7805 55.5735 58.2949C54.7689 57.1807 54.4816 56.5236 55.1999 57.4664C56.0907 58.552 56.8665 58.9234 57.3837 58.4948C57.9583 58.0092 58.1882 58.352 57.7572 59.0376C57.4411 59.5233 57.5273 59.8376 58.3893 61.2374C59.7685 63.523 60.4294 64.0943 61.2339 63.6658C62.2108 63.1516 62.9579 61.2089 62.9579 59.1519C62.9579 57.4664 62.9004 57.2949 61.8373 56.1522C59.9122 54.0667 56.7515 52.8953 54.9126 53.581ZM59.1651 55.0666C60.0558 55.5237 61.119 56.2379 61.5212 56.6664C62.1534 57.3521 62.2396 57.6378 62.1534 59.2948C62.0959 61.0946 61.435 62.8087 60.8316 62.8087C60.4868 62.8087 59.5099 61.9231 59.5099 61.6088C59.5099 61.4946 59.826 61.4374 60.2282 61.5517C61.3488 61.8374 61.5212 60.8946 60.5443 60.0376C59.7398 59.3519 59.0789 59.2948 59.0789 59.8661C59.0789 60.0376 58.964 60.2947 58.8203 60.4375C58.6767 60.5804 58.6479 60.1233 58.7341 59.3519C58.8491 58.4377 58.7916 57.8663 58.533 57.4949C58.1595 57.0378 58.0445 57.0093 57.3837 57.3521C56.7228 57.7235 56.5791 57.6949 56.0332 57.2092C55.2287 56.495 54.5391 55.1523 54.7402 54.638C55.0275 53.9238 57.3262 54.1524 59.1651 55.0666ZM54.1655 57.8377C54.9413 58.6091 55.1999 59.2948 55.0275 60.209C54.8839 60.8661 54.9988 61.2089 55.5735 61.7803C56.0045 62.1802 56.6366 62.523 57.0101 62.523C57.9296 62.523 58.3606 63.0373 58.3606 64.1515C58.3606 65.2085 57.7572 65.6656 56.378 65.6656C54.9701 65.6656 53.6483 64.6943 52.7576 62.9516C52.068 61.5803 51.9818 61.1232 52.1255 59.6662C52.2117 58.752 52.3554 57.8663 52.4703 57.6949C52.7289 57.2378 53.6483 57.3235 54.1655 57.8377ZM60.5156 60.5232C60.6018 60.6661 60.573 60.8089 60.4006 60.8089C60.257 60.8089 60.0271 60.6661 59.9409 60.5232C59.8547 60.3518 59.8834 60.2375 60.0558 60.2375C60.1995 60.2375 60.4294 60.3518 60.5156 60.5232Z" fill="#CBCBCB"/>
<path d="M56.2057 54.7809C55.9758 55.2094 56.608 56.295 57.0102 56.1522C57.5274 55.9808 57.4412 54.6952 56.8666 54.5809C56.608 54.5238 56.3206 54.638 56.2057 54.7809Z" fill="#CBCBCB"/>
<path d="M59.4524 56.8378C58.6192 57.2949 58.849 57.7234 59.8834 57.6091C60.4581 57.552 60.8029 57.3806 60.8029 57.0949C60.8029 56.5806 60.1133 56.4378 59.4524 56.8378Z" fill="#CBCBCB"/>
<path d="M52.7003 58.9805C52.4129 59.7518 53.5048 60.2089 54.3381 59.6661C54.7116 59.409 54.6829 59.3233 54.2231 58.9519C53.4761 58.4091 52.9301 58.4091 52.7003 58.9805Z" fill="#CBCBCB"/>
<path d="M53.3898 61.9802C52.9876 62.2088 52.9301 62.3802 53.2174 62.6944C53.6772 63.2658 53.907 63.2087 54.2806 62.3802C54.6541 61.5802 54.338 61.4374 53.3898 61.9802Z" fill="#CBCBCB"/>
<path d="M55.6309 63.6658C55.085 64.2657 55.2286 65.0942 55.8895 65.0942C56.4067 65.0942 56.6365 64.7514 56.8089 63.8086C56.9526 62.923 56.378 62.8659 55.6309 63.6658Z" fill="#CBCBCB"/>
<path d="M35.805 52.7524C33.3339 53.9238 31.6387 56.6378 31.6387 59.3519C31.6387 62.2945 33.3052 65.5513 35.5751 67.094C36.4371 67.694 37.0405 67.8368 39.0231 67.9225C41.1781 68.0082 41.5516 67.9225 42.9308 67.2369C44.9996 66.1798 45.8903 65.237 46.896 63.2087C48.0741 60.7517 48.0741 58.3234 46.9247 56.5807C45.3157 54.1809 42.2987 52.5525 39.0231 52.3525C37.3853 52.2382 36.7244 52.3239 35.805 52.7524ZM42.0976 54.2666C43.3905 54.6951 44.2813 55.2094 45.0571 56.0093L46.1489 57.1235V60.0946C46.1489 62.923 46.1202 63.0944 45.2869 64.2943C44.3387 65.6084 42.7584 66.5226 40.4885 67.094C36.667 68.0368 32.5007 64.1514 32.5007 59.6375C32.5007 57.0663 34.3396 54.0952 36.0349 53.8666C38.4484 53.5809 40.3448 53.6952 42.0976 54.2666Z" fill="#CBCBCB"/>
<path d="M40.8334 55.2379C40.2875 55.895 40.6035 56.6664 41.4081 56.6664C41.954 56.6664 42.1551 56.495 42.2126 55.9807C42.3562 54.9808 41.4655 54.4666 40.8334 55.2379ZM41.6954 55.9522C41.6954 56.095 41.6379 56.2378 41.5805 56.2378C41.4943 56.2378 41.3506 56.095 41.2644 55.9522C41.1782 55.7807 41.2357 55.6665 41.3793 55.6665C41.5517 55.6665 41.6954 55.7807 41.6954 55.9522Z" fill="#CBCBCB"/>
<path d="M35.4314 55.3523C35.2015 55.4666 35.0866 55.8951 35.144 56.2665C35.259 57.095 36.5232 57.3521 37.0979 56.6664C37.414 56.295 37.3852 56.1236 36.9542 55.6665C36.3796 55.038 36.006 54.9809 35.4314 55.3523ZM36.3796 56.2379C36.4658 56.3808 36.4083 56.5236 36.2646 56.5236C36.0922 56.5236 35.9486 56.3808 35.9486 56.2379C35.9486 56.0665 36.006 55.9522 36.0635 55.9522C36.1497 55.9522 36.2934 56.0665 36.3796 56.2379Z" fill="#CBCBCB"/>
<path d="M37.9887 57.6377C37.6152 58.2948 37.8451 59.0947 38.391 59.0947C38.9082 59.0947 39.4541 58.3519 39.3392 57.752C39.1955 57.0378 38.3335 56.9521 37.9887 57.6377ZM38.822 58.1234C38.822 58.3519 38.6783 58.4662 38.5347 58.3805C38.3623 58.2662 38.3048 58.0662 38.391 57.9234C38.6496 57.5234 38.822 57.6091 38.822 58.1234Z" fill="#CBCBCB"/>
<path d="M43.3332 58.152C42.6436 58.8377 43.7354 60.1518 44.6836 59.7805C45.287 59.5519 45.287 58.352 44.6836 58.1235C44.109 57.8949 43.563 57.8949 43.3332 58.152ZM44.5112 59.0091C44.6836 59.5519 43.7929 59.4662 43.5918 58.9234C43.4768 58.6091 43.563 58.5234 43.9078 58.5806C44.1664 58.6377 44.425 58.8377 44.5112 59.0091Z" fill="#CBCBCB"/>
<path d="M38.3335 60.0947C37.9312 60.409 37.8738 60.609 38.1324 61.0089C38.5346 61.6946 39.4828 61.8088 39.9425 61.266C40.7471 60.3233 39.3679 59.3519 38.3335 60.0947ZM39.5403 60.8089C39.4541 60.9518 39.253 61.0946 39.0806 61.0946C38.9369 61.0946 38.822 60.9518 38.822 60.8089C38.822 60.6375 39.0231 60.5232 39.2817 60.5232C39.5116 60.5232 39.6265 60.6375 39.5403 60.8089Z" fill="#CBCBCB"/>
<path d="M34.6844 61.3517C33.7937 62.3516 35.2016 63.6658 36.1498 62.723C36.667 62.2088 36.4946 61.5231 35.7188 61.1231C35.2878 60.8946 35.058 60.9517 34.6844 61.3517ZM35.7188 62.0945C35.7188 62.2373 35.5752 62.4087 35.4028 62.4659C35.2304 62.523 35.0867 62.3516 35.0867 62.0945C35.0867 61.8374 35.2304 61.6659 35.4028 61.7231C35.5752 61.7802 35.7188 61.9516 35.7188 62.0945Z" fill="#CBCBCB"/>
<path d="M42.2698 61.5231C41.8101 62.0945 42.0112 62.923 42.6721 63.0372C42.9882 63.1229 43.4192 62.923 43.6203 62.6373C43.9364 62.2087 43.9076 62.0373 43.5054 61.6088C42.9307 60.9803 42.7296 60.9803 42.2698 61.5231ZM43.1318 62.2373C43.1318 62.3801 43.0169 62.523 42.8445 62.523C42.7008 62.523 42.5572 62.3801 42.5572 62.2373C42.5572 62.0659 42.7008 61.9516 42.8445 61.9516C43.0169 61.9516 43.1318 62.0659 43.1318 62.2373Z" fill="#CBCBCB"/>
<path d="M38.2761 63.6086C38.0462 64.0371 38.1037 64.2657 38.5634 64.6942C39.2818 65.3513 40.115 64.9228 40.115 63.9229C40.115 63.0086 38.7358 62.7801 38.2761 63.6086ZM39.684 63.9514C39.684 64.0943 39.4829 64.2371 39.253 64.2371C39.0232 64.2371 38.822 64.0943 38.822 63.9514C38.822 63.78 39.0232 63.6657 39.253 63.6657C39.4829 63.6657 39.684 63.78 39.684 63.9514Z" fill="#CBCBCB"/>
<path d="M12.3874 55.238C12.1001 55.5809 12.1575 55.8665 12.646 56.695C12.9908 57.2379 13.1632 57.8378 13.077 58.0092C12.9908 58.1521 13.2207 58.6377 13.5942 59.0377C13.9965 59.4662 14.3987 60.0376 14.5137 60.3519C14.6573 60.7804 14.8872 60.8661 15.7779 60.7233C18.0479 60.3519 17.9617 60.3233 18.1341 61.2375C18.3926 62.6374 18.8524 61.9517 18.7662 60.3233C18.6225 57.7521 18.0766 56.4094 17.1284 56.1237C16.6399 56.0094 16.0365 55.7808 15.7779 55.638C15.4906 55.4952 14.9447 55.3809 14.5711 55.3809C14.1689 55.3809 13.7666 55.238 13.6804 55.0952C13.4218 54.6667 12.7897 54.7524 12.3874 55.238ZM14.5137 56.8665C15.0309 57.3807 15.8067 58.0949 16.2089 58.4377C17.1859 59.2662 17.1859 59.4662 16.1515 59.8662C15.2033 60.209 14.8297 60.0376 15.2895 59.4948C15.663 59.0377 15.4044 58.5235 14.801 58.5235C14.5711 58.5235 14.3987 58.3806 14.3987 58.1806C14.3987 58.0092 14.0827 57.4378 13.6517 56.895C12.7322 55.6951 13.2781 55.6666 14.5137 56.8665ZM17.4732 57.5235C17.5594 57.7807 17.5594 58.0664 17.4445 58.1521C17.2146 58.4092 16.3813 57.6378 16.5825 57.3521C16.8123 56.9522 17.2721 57.0379 17.4732 57.5235Z" fill="#CBCBCB"/>
<path d="M21.2661 58.6092C20.4903 59.1234 20.2604 59.4662 20.203 60.3519C20.0593 62.066 21.065 62.7802 22.2143 61.7517C22.7028 61.3232 22.7315 61.3232 22.7315 61.7803C22.7315 62.0374 22.1568 62.8088 21.4385 63.4373C20.3466 64.4086 20.1455 64.78 20.1455 65.6657C20.1455 66.4656 20.3466 66.8941 21.0937 67.5798C23.22 69.5796 24.0245 69.3796 25.3462 66.5513C26.2082 64.6943 26.6392 64.2372 27.1277 64.6943C27.2139 64.8086 27.0989 65.18 26.8691 65.5228C26.2369 66.4656 26.7541 67.3798 27.9322 67.3798C29.139 67.3798 29.8286 66.9513 30.3745 65.8657C31.2078 64.2658 30.8343 62.8088 28.9666 60.4376C27.1277 58.0949 23.3636 57.2093 21.2661 58.6092ZM26.8403 59.6662C29.7999 61.5232 30.9205 65.38 28.8229 66.4942C28.0184 66.9227 27.4725 66.437 27.9035 65.6942C28.5356 64.4943 27.3288 63.0659 26.1795 63.6659C25.5761 63.9801 24.6566 65.58 24.3406 66.8656C24.2544 67.2941 23.9096 67.7798 23.5935 67.9512C23.1625 68.1797 22.8464 68.0655 22.0132 67.3512C20.6052 66.0942 20.6627 65.2657 22.3005 63.6659C23.651 62.3517 23.9096 61.4375 23.1625 60.809C22.9039 60.609 22.3867 60.5233 21.8695 60.6375C20.6627 60.8661 20.7202 60.1233 21.9557 59.3805C23.3636 58.5234 25.2025 58.6092 26.8403 59.6662Z" fill="#CBCBCB"/>
<path d="M47.3558 67.9226C47.0972 68.3797 46.465 69.0939 46.0053 69.4939C44.8272 70.4653 44.8847 70.8938 46.1777 70.6367C46.9822 70.4938 47.3845 70.5795 48.0741 71.0938C48.7924 71.6366 49.051 71.6651 49.6544 71.408C50.0279 71.2366 50.775 71.0938 51.3209 71.0938C53.1599 71.0938 54.7976 68.9225 53.6483 67.9798C53.4472 67.8083 52.3553 67.6369 51.2347 67.5798C50.1141 67.5227 49.1085 67.4084 48.9935 67.2941C48.5338 66.8656 47.8155 67.1227 47.3558 67.9226ZM48.8211 68.294C49.0797 68.5511 49.3383 68.5511 49.8555 68.294C50.344 68.0655 50.6313 68.0655 50.775 68.2654C50.8612 68.4369 51.3497 68.5226 51.8381 68.4654C52.3266 68.4083 52.7576 68.5226 52.8151 68.694C52.9875 69.1797 51.2347 70.5224 50.7175 70.3224C50.344 70.1796 50.344 70.1224 50.6601 69.9224C51.2922 69.4939 50.3153 69.0939 49.1372 69.2654C48.0166 69.4653 47.6144 69.1511 47.9017 68.4083C48.1028 67.8655 48.3614 67.8369 48.8211 68.294ZM49.6831 70.4081C49.4245 70.6652 49.0797 70.7795 48.9073 70.6938C48.3327 70.3224 48.5913 69.951 49.3671 69.951C50.0854 69.951 50.1141 69.9796 49.6831 70.4081Z" fill="#CBCBCB"/>
<path d="M31.3226 68.0369C29.9721 68.9511 29.5699 69.8081 29.7135 71.6365C29.7997 72.9507 29.9721 73.3221 30.7479 74.0078C31.8111 74.9505 33.5063 75.0934 34.8568 74.2934C35.805 73.7506 36.8106 72.0651 36.8106 71.0366C36.7819 70.0367 35.7762 68.0369 35.1441 67.694C34.1384 67.1798 32.3857 67.3226 31.3226 68.0369ZM34.5407 68.2368C35.2878 68.6654 35.9486 70.0081 35.9486 71.1794C35.9486 72.465 34.6269 73.9506 33.5063 73.9506C32.4145 73.9506 30.8054 72.8936 30.6043 72.0365C30.0009 69.6939 32.5581 67.2084 34.5407 68.2368Z" fill="#CBCBCB"/>
<path d="M31.811 70.0081C31.5525 70.3509 31.3513 70.8366 31.3513 71.0937C31.3513 71.8651 32.2133 72.8079 32.9316 72.8079C33.8798 72.8079 34.6269 71.6365 34.3683 70.6081C34.0235 69.2367 32.5868 68.9225 31.811 70.0081ZM33.7649 70.7223C33.8798 70.9794 33.7649 71.3794 33.5063 71.6365C33.1328 72.0365 33.0178 72.0365 32.6156 71.608C32.357 71.3508 32.2133 70.9223 32.2995 70.6938C32.5294 70.0938 33.535 70.1224 33.7649 70.7223Z" fill="#CBCBCB"/>
<path d="M38.8219 70.1509C38.276 70.6651 37.8737 71.3222 37.7875 71.9793C37.6439 72.8364 37.7588 73.1792 38.4484 73.9505C39.138 74.7219 39.4828 74.8933 40.5172 74.8933C42.6722 74.8933 43.879 73.0363 43.017 71.0079C42.2699 69.2081 40.3161 68.8081 38.8219 70.1509ZM41.4079 70.2366C41.7527 70.4651 41.724 70.5223 41.2355 70.5223C40.8907 70.5223 40.1724 70.5794 39.6552 70.6651L38.6783 70.808L39.5403 70.408C40.5747 69.8938 40.8333 69.8652 41.4079 70.2366ZM41.6378 71.4079C41.3505 71.5508 40.6034 71.865 39.9713 72.0936C38.8794 72.465 38.7932 72.465 38.8794 72.0364C38.9656 71.4936 39.8851 71.1508 41.2643 71.1222C41.9826 71.1222 42.0401 71.1508 41.6378 71.4079ZM41.6665 72.4935C40.9195 73.0363 39.8276 73.6648 39.569 73.6648C39.0518 73.6648 39.5403 73.0649 40.4885 72.5792C41.8389 71.8364 42.5573 71.7793 41.6665 72.4935ZM42.2987 73.3506C41.8964 74.0648 40.9482 74.6076 40.5172 74.3791C40.3735 74.2648 40.7183 73.8363 41.3217 73.4077C42.5573 72.4935 42.7584 72.4935 42.2987 73.3506Z" fill="#CBCBCB"/>
</svg>
