<svg width="30" height="30" viewBox="0 0 30 30" fill="none" xmlns="http://www.w3.org/2000/svg">
<g clip-path="url(#clip0_47_3063)">
<path d="M15 26.6667C8.9525 26.6667 4.16667 23.3333 2.75083 25C2.58667 25.2692 2.5 25.5475 2.5 25.8333C2.5 27.5 8.09667 30 15 30C21.9033 30 27.5 27.5 27.5 25.8333C27.5 25.5475 27.4133 25.2692 27.2492 25C25.8333 23.3333 21.0475 26.6667 15 26.6667Z" fill="#F4900C"/>
<path d="M15 27.5C20.1775 27.5 23.8467 25.9917 25.2275 25.3183C25.625 25.1242 25.6767 24.6183 25.5733 24.2533C25.47 23.8883 16.6667 1.66667 16.6667 1.66667C16.6667 1.66667 15.92 -8.47957e-07 15 -9.28386e-07C14.08 -1.00881e-06 13.3333 1.66667 13.3333 1.66667L4.41334 24.3508C4.41334 24.3508 4.23584 25.0525 4.88751 25.375C6.34001 26.0925 9.96084 27.5 15 27.5Z" fill="#FFCC4D"/>
<path d="M15 4.16663C15 5.05068 15.3512 5.89853 15.9763 6.52365C16.6014 7.14877 17.4493 7.49996 18.3333 7.49996C18.545 7.49996 18.75 7.47579 18.9508 7.43746L16.6667 1.66663C16.6667 1.66663 16.6075 1.54996 16.5083 1.38163C16.0452 1.68389 15.6648 2.09684 15.4015 2.5831C15.1381 3.06937 15.0001 3.61362 15 4.16663ZM15.8333 13.3333C15.8333 14.2173 16.1845 15.0652 16.8096 15.6903C17.4348 16.3154 18.2826 16.6666 19.1667 16.6666C20.355 16.6666 21.3917 16.04 21.9817 15.1033L20.0133 10.1216C19.7376 10.0446 19.453 10.0037 19.1667 9.99996C17.3267 9.99996 15.8333 11.4933 15.8333 13.3333Z" fill="#BE1931"/>
<path d="M16.6667 20C14.8257 20 13.3333 21.4923 13.3333 23.3333C13.3333 25.1742 14.8257 26.6666 16.6667 26.6666C18.5076 26.6666 20 25.1742 20 23.3333C20 21.4923 18.5076 20 16.6667 20Z" fill="#BE1931"/>
<path d="M9.16666 22.4999C10.0507 22.4999 10.8986 22.1487 11.5237 21.5236C12.1488 20.8985 12.5 20.0506 12.5 19.1666C12.5 18.2825 12.1488 17.4347 11.5237 16.8096C10.8986 16.1844 10.0507 15.8333 9.16666 15.8333C8.59833 15.8333 8.07083 15.9891 7.6025 16.2399L6.02749 20.2449C6.4775 21.5541 7.70666 22.4999 9.16666 22.4999ZM14.1667 9.16658C14.1653 8.42648 13.9171 7.70798 13.4614 7.12478C13.0057 6.54157 12.3686 6.12697 11.6508 5.94658L9.24 12.0774C9.72673 12.351 10.275 12.4964 10.8333 12.4999C12.6733 12.4999 14.1667 11.0066 14.1667 9.16658ZM21.6667 19.9999C21.6667 20.884 22.0179 21.7318 22.643 22.3569C23.2681 22.9821 24.1159 23.3333 25 23.3333C25.0725 23.3333 25.1408 23.3166 25.2125 23.3116C24.7542 22.1349 23.9 19.9649 22.9 17.4308C22.1533 18.0424 21.6667 18.9599 21.6667 19.9999Z" fill="#BE1931"/>
</g>
<defs>
<clipPath id="clip0_47_3063">
<rect width="30" height="30" fill="white" transform="translate(30 30) rotate(-180)"/>
</clipPath>
</defs>
</svg>
